<svg width="145" height="116" viewBox="0 0 145 116" fill="none" xmlns="http://www.w3.org/2000/svg">
<path d="M38.0856 15.6561C38.0856 15.6561 44.093 5.13882 46.2604 1.34441C46.7356 0.5125 47.6139 -0.00012207 48.5644 -0.00012207H86.6187C87.5694 -0.00012207 88.4477 0.5125 88.923 1.34441C92.1645 7.01937 104.709 28.9806 107.95 34.6553C108.425 35.4873 108.425 36.5125 107.95 37.3444C104.709 43.0193 92.1645 64.9807 88.923 70.6555C88.4477 71.4874 87.5694 71.9999 86.6187 71.9999H48.5644C47.6139 71.9999 46.7356 71.4874 46.2604 70.6555C44.093 66.8609 38.0856 56.3438 38.0856 56.3438L48.3688 38.3407L57.3116 53.9971H76.3355C77.2862 53.9971 78.1645 53.4846 78.6395 52.6524C80.5462 49.3151 85.4772 40.6817 87.3836 37.3444C87.8589 36.5125 87.8589 35.4873 87.3836 34.6553C85.4772 31.318 80.5462 22.6846 78.6395 19.3474C78.1645 18.5153 77.2862 18.0028 76.3355 18.0028H57.3116L48.3688 33.659L38.0856 15.6561Z" fill="url(#paint0_linear)"/>
<path d="M46.1638 1.20779C47.029 -0.0809136 48.3975 0.000917028 48.3975 0.000917028C46.8375 0.213433 47.4975 1.20779 47.4975 1.20779L66.5838 34.622C67.0585 35.4533 67.0585 36.4774 66.5838 37.3087L51.7343 63.3056H51.7353L47.5001 70.7205C47.5001 70.7205 46.84 71.7147 48.3999 71.9274C48.3999 71.9274 47.0314 72.0091 46.1662 70.7205L44.4055 67.6381L44.3925 67.6371C44.3925 67.6371 38.8288 57.8968 37.3562 55.3183C36.8814 54.487 36.8814 53.4632 37.3562 52.632C39.2633 49.2933 44.2016 40.6477 46.1087 37.3087C46.5834 36.4774 46.5834 35.4536 46.1087 34.6223C44.2023 31.2847 39.2667 22.6441 37.3603 19.3065C36.8858 18.4753 36.8858 17.4513 37.3603 16.6201L46.1638 1.20796V1.20779Z" fill="url(#paint1_linear)"/>
<path d="M0.00012207 96.4H9.02603C11.1166 96.4 12.9709 96.7813 14.5888 97.5437C16.2068 98.3062 17.4611 99.3878 18.3519 100.789C19.2427 102.189 19.6881 103.83 19.6881 105.709C19.6881 107.589 19.2427 109.229 18.3519 110.63C17.4611 112.03 16.2068 113.112 14.5888 113.875C12.9709 114.637 11.1166 115.018 9.02603 115.018H0.00012207V96.4ZM8.80788 110.816C10.444 110.816 11.7529 110.364 12.7346 109.459C13.7344 108.555 14.2343 107.305 14.2343 105.709C14.2343 104.113 13.7344 102.863 12.7346 101.959C11.7529 101.055 10.444 100.602 8.80788 100.602H5.3993V110.816H8.80788Z" fill="white"/>
<path d="M39.7624 115.018L39.7079 105.151L34.7995 113.183H32.3999L27.5188 105.417V115.018H22.5287V96.4H26.9735L33.6815 107.145L40.226 96.4H44.6708L44.7253 115.018H39.7624Z" fill="white"/>
<path d="M61.3347 111.401H53.2632L51.7634 115.018H46.2551L54.6811 96.4H59.9985L68.4518 115.018H62.8344L61.3347 111.401ZM59.7531 107.518L57.2989 101.56L54.8447 107.518H59.7531Z" fill="white"/>
<path d="M78.3266 110.071H75.3816V115.018H69.9824V96.4H78.7084C80.4354 96.4 81.9352 96.6837 83.2077 97.2511C84.4802 97.8008 85.4619 98.5987 86.1527 99.6449C86.8435 100.673 87.1889 101.888 87.1889 103.289C87.1889 104.636 86.8617 105.816 86.2072 106.826C85.571 107.819 84.6529 108.599 83.4531 109.167L87.5707 115.018H81.7897L78.3266 110.071ZM81.7352 103.289C81.7352 102.42 81.4534 101.746 80.8899 101.267C80.3263 100.789 79.4901 100.549 78.3812 100.549H75.3816V106.002H78.3812C79.4901 106.002 80.3263 105.771 80.8899 105.31C81.4534 104.831 81.7352 104.158 81.7352 103.289Z" fill="white"/>
<path d="M97.5301 108.262L95.5122 110.364V115.018H90.1676V96.4H95.5122V104.14L102.902 96.4H108.847L101.048 104.645L109.256 115.018H102.984L97.5301 108.262Z" fill="white"/>
<path d="M125.997 110.949V115.018H110.672V96.4H125.643V100.469H116.017V103.608H124.497V107.544H116.017V110.949H125.997Z" fill="white"/>
<path d="M133.056 100.576H127.194V96.4H144.291V100.576H138.456V115.018H133.056V100.576Z" fill="white"/>
<defs>
<linearGradient id="paint0_linear" x1="55.4366" y1="37.6558" x2="99.2405" y2="37.6558" gradientUnits="userSpaceOnUse">
<stop stop-color="#36B895"/>
<stop offset="1" stop-color="#90CD92"/>
</linearGradient>
<linearGradient id="paint1_linear" x1="37.7565" y1="33.7431" x2="66.0818" y2="33.7431" gradientUnits="userSpaceOnUse">
<stop stop-color="#6FC5A1"/>
<stop offset="1" stop-color="#AED691"/>
</linearGradient>
</defs>
</svg>
