<svg xmlns="http://www.w3.org/2000/svg" style="display: none;">
  <symbol id="icon-target" fill="currentColor" viewBox="0 0 25 25">
    <path d="M11.1355 10.7022C11.076 10.698 11.0166 10.6958 10.9571 10.6958C9.65962 10.6958 8.60634 11.7489 8.60629 13.046C8.60629 14.3432 9.65535 15.3963 10.955 15.3963C12.2546 15.3963 13.3057 14.3432 13.3057 13.046C13.3057 12.9866 13.3036 12.9272 13.2993 12.8677L14.9791 11.1884L15.0152 11.1523C15.2849 11.7277 15.4357 12.3688 15.4357 13.0461C15.4357 15.5194 13.431 17.5236 10.9571 17.5236C8.48315 17.5236 6.47852 15.5173 6.47852 13.0439C6.47852 10.5706 8.48315 8.56641 10.9571 8.56641C11.6345 8.56641 12.2758 8.71714 12.8513 8.98677L12.8152 9.02286L11.1355 10.7022Z"/>
    <path d="M10.9999 4.08605C10.9849 4.08597 10.97 4.08594 10.9551 4.08594C6.01023 4.08594 2 8.09618 2 13.0431C2 17.99 6.01025 22.0003 10.9572 22.0003C15.9041 22.0003 19.9143 17.99 19.9143 13.0431C19.9143 12.2083 19.8005 11.4006 19.5873 10.6344L17.4036 11.6897C17.4951 12.1266 17.5433 12.5793 17.5433 13.0431C17.5433 16.6791 14.5952 19.6272 10.9592 19.6272C7.32329 19.6272 4.3731 16.6791 4.3731 13.0431C4.3731 9.40714 7.32118 6.45905 10.9571 6.45905C11.9807 6.45905 12.9488 6.69275 13.8115 7.10913L14.1692 6.62148L10.9999 4.08605Z"/>
    <path d="M22.9329 0.345606L14.2297 4.78016L16.9462 6.94135L13.115 11.757L21.8183 7.32245L19.1017 5.16126L22.9329 0.345606Z"/>
  </symbol>
  <symbol id="icon-seo-area" viewBox="0 0 20 20" fill="currentColor">
    <path d="M0 2C0 0.895431 0.895431 0 2 0H8C9.10457 0 10 0.895431 10 2V18C10 19.1046 9.10457 20 8 20H2C0.89543 20 0 19.1046 0 18V2Z"/>
    <path fill-rule="evenodd" clip-rule="evenodd" d="M18 3C18 2.44772 17.5523 2 17 2H3C2.44772 2 2 2.44772 2 3L2 17C2 17.5523 2.44772 18 3 18H17C17.5523 18 18 17.5523 18 17V3ZM2 0C0.895431 0 0 0.895431 0 2V18C0 19.1046 0.895431 20 2 20H18C19.1046 20 20 19.1046 20 18V2C20 0.895431 19.1046 0 18 0H2Z"/>
  </symbol>
  <symbol id="icon-market" fill="currentColor">
    <path d="M19.77 9.109L14.85.856a1.809 1.809 0 0 0-.647-.617A1.865 1.865 0 0 0 13.332 0H3.566c-.323.009-.639.1-.914.267h.018c-.25.145-.452.355-.585.606L.256 3.993a1.399 1.399 0 0 0 0 1.444L2.47 9.162c.143.257.213.546.201.838.002.299-.074.593-.22.856L.202 14.563a1.399 1.399 0 0 0 0 1.444l1.83 3.12c.138.247.34.455.584.606h.055c.275.166.59.258.915.267h9.802c.308.003.612-.075.88-.225.266-.15.487-.368.638-.63l4.846-8.272a1.749 1.749 0 0 0 .018-1.764zm-5.78 1.782l-2.011 3.423c-.16.255-.382.467-.647.616-.265.15-.565.232-.871.24H6.437a1.868 1.868 0 0 1-.731-.161l2.45-4.136a1.748 1.748 0 0 0 0-1.782L5.689 5.009c.201-.091.418-.145.64-.16h4.06c.308-.004.612.074.879.224.267.151.488.369.639.631l2.03 3.405a1.75 1.75 0 0 1 .054 1.71v.072z"/>
  </symbol>
  <symbol id="icon-exchange" viewBox="0 0 14 24" fill="currentColor">
    <path d="M8.353 12l-.995 1.057 3.939 4.193H2v1.5h9.296l-3.938 4.192L8.353 24 14 18l-5.647-6zM5.647 0l.995 1.058L2.704 5.25H12v1.5H2.704l3.938 4.193L5.647 12 0 6l5.647-6z"/>
  </symbol>
  <symbol id="icon-equaliser" viewBox="0 0 24 16" fill="currentColor">
    <path d="M12 0a2 2 0 0 0-1.73 1H2v2h2l-4 8a5 5 0 0 0 10 0L6 3h4.271A2 2 0 0 0 13 3.732 2 2 0 0 0 13.73 3H18l-4 8a5 5 0 0 0 10 0l-4-8h2V1h-8.271A2 2 0 0 0 12 0zM5 5.021L7.988 11H2.012L5 5.021zm14 0L21.988 11h-5.976L19 5.021z"/>
  </symbol>
  <symbol id="icon-buy" viewBox="0 0 20 19" fill="currentColor">
    <path d="M5.893 14.72c-1.048 0-1.905.828-1.905 1.84s.857 1.84 1.905 1.84c1.049 0 1.906-.828 1.906-1.84s-.857-1.84-1.906-1.84zM.176 0v1.84h1.906l3.43 6.992-1.334 2.208c-.095.276-.19.644-.19.92 0 1.012.857 1.84 1.905 1.84H17.33v-1.84H6.275c-.096 0-.191-.092-.191-.184v-.092l.858-1.564h7.051c.763 0 1.335-.368 1.62-.92l3.431-5.98c.19-.184.19-.276.19-.46 0-.552-.38-.92-.952-.92H4.178L3.32 0H.176zm15.247 14.72c-1.048 0-1.906.828-1.906 1.84s.858 1.84 1.906 1.84 1.906-.828 1.906-1.84-.858-1.84-1.906-1.84z"/>
  </symbol>
  <symbol id="icon-withdraw" viewBox="0 0 24 30" fill="currentColor">
    <path d="M12 14C8.51406 14 3.77325 14.8922 3.76842 14.8931H3.76674C2.74827 15.0978 1.95284 15.8948 1.76116 16.9013L1.75781 16.9046L0.0719866 25.9408L0.0736607 25.9424C0.0265753 26.1649 0 26.3954 0 26.6316C0 28.4918 1.53514 30 3.42857 30C4.44549 30 5.34866 29.5561 5.97656 28.8651L5.98828 28.8717L7.28571 27.4737H12H16.7143L18.0117 28.8717L18.0234 28.8651C18.6513 29.5561 19.5545 30 20.5714 30C22.4649 30 24 28.4918 24 26.6316C24 26.3954 23.9734 26.1649 23.9263 25.9424L23.928 25.9408L22.2422 16.9046L22.2388 16.9013C22.0471 15.8943 21.2508 15.0973 20.2316 14.8931C20.2311 14.893 20.2304 14.8932 20.2299 14.8931C20.2259 14.8922 15.4859 14 12 14ZM6 19.0526C6.47314 19.0526 6.85714 19.4299 6.85714 19.8947V20.7368H7.71429C8.18743 20.7368 8.57143 21.1141 8.57143 21.5789C8.57143 22.0438 8.18743 22.4211 7.71429 22.4211H6.85714V23.2632C6.85714 23.728 6.47314 24.1053 6 24.1053C5.52686 24.1053 5.14286 23.728 5.14286 23.2632V22.4211H4.28571C3.81257 22.4211 3.42857 22.0438 3.42857 21.5789C3.42857 21.1141 3.81257 20.7368 4.28571 20.7368H5.14286V19.8947C5.14286 19.4299 5.52686 19.0526 6 19.0526ZM18 19.0526C18.4731 19.0526 18.8571 19.4299 18.8571 19.8947C18.8571 20.3596 18.4731 20.7368 18 20.7368C17.5269 20.7368 17.1429 20.3596 17.1429 19.8947C17.1429 19.4299 17.5269 19.0526 18 19.0526ZM16.2857 20.7368C16.7589 20.7368 17.1429 21.1141 17.1429 21.5789C17.1429 22.0438 16.7589 22.4211 16.2857 22.4211C15.8126 22.4211 15.4286 22.0438 15.4286 21.5789C15.4286 21.1141 15.8126 20.7368 16.2857 20.7368ZM19.7143 20.7368C20.1874 20.7368 20.5714 21.1141 20.5714 21.5789C20.5714 22.0438 20.1874 22.4211 19.7143 22.4211C19.2411 22.4211 18.8571 22.0438 18.8571 21.5789C18.8571 21.1141 19.2411 20.7368 19.7143 20.7368ZM18 22.4211C18.4731 22.4211 18.8571 22.7983 18.8571 23.2632C18.8571 23.728 18.4731 24.1053 18 24.1053C17.5269 24.1053 17.1429 23.728 17.1429 23.2632C17.1429 22.7983 17.5269 22.4211 18 22.4211Z"/>
    <path d="M18 6.35294L16.9425 5.35765L12.75 9.29647V0L11.25 0V9.29647L7.0575 5.35765L6 6.35294L12 12L18 6.35294Z"/>
  </symbol>
  <symbol id="icon-instant" viewBox="0 0 9 15" fill="currentColor">
    <path d="M5.031.533L.858 8.615h3.577v5.595l4.173-8.082H5.031V.533z"/>
  </symbol>
  <symbol id="icon-manage" viewBox="0 0 16 16" fill="currentColor">
    <path d="M13.95 8.78c.03-.25.05-.51.05-.78s-.02-.53-.06-.78l1.69-1.32c.15-.12.19-.34.1-.51l-1.6-2.77c-.1-.18-.31-.24-.49-.18l-1.99.8c-.42-.32-.86-.58-1.35-.78L10 .34A.4.4 0 0 0 9.6 0H6.4c-.2 0-.36.14-.39.34l-.3 2.12c-.49.2-.94.47-1.35.78l-1.99-.8c-.18-.07-.39 0-.49.18L.28 5.39c-.1.18-.06.39.1.51l1.69 1.32C2.03 7.47 2 7.74 2 8s.02.53.06.78L.37 10.1c-.15.12-.19.34-.1.51l1.6 2.77c.1.18.31.24.49.18l1.99-.8c.42.32.86.58 1.35.78l.3 2.12c.04.2.2.34.4.34h3.2c.2 0 .37-.14.39-.34l.3-2.12c.49-.2.94-.47 1.35-.78l1.99.8c.18.07.39 0 .49-.18l1.6-2.77c.1-.18.06-.39-.1-.51l-1.67-1.32zM8 11c-1.65 0-3-1.35-3-3s1.35-3 3-3 3 1.35 3 3-1.35 3-3 3z"/>
  </symbol>
  <symbol id="icon-settings" viewBox="0 0 24 24" fill="currentColor">
    <path xmlns="http://www.w3.org/2000/svg" d="M19.14,12.94c0.04-0.3,0.06-0.61,0.06-0.94c0-0.32-0.02-0.64-0.07-0.94l2.03-1.58c0.18-0.14,0.23-0.41,0.12-0.61 l-1.92-3.32c-0.12-0.22-0.37-0.29-0.59-0.22l-2.39,0.96c-0.5-0.38-1.03-0.7-1.62-0.94L14.4,2.81c-0.04-0.24-0.24-0.41-0.48-0.41 h-3.84c-0.24,0-0.43,0.17-0.47,0.41L9.25,5.35C8.66,5.59,8.12,5.92,7.63,6.29L5.24,5.33c-0.22-0.08-0.47,0-0.59,0.22L2.74,8.87 C2.62,9.08,2.66,9.34,2.86,9.48l2.03,1.58C4.84,11.36,4.8,11.69,4.8,12s0.02,0.64,0.07,0.94l-2.03,1.58 c-0.18,0.14-0.23,0.41-0.12,0.61l1.92,3.32c0.12,0.22,0.37,0.29,0.59,0.22l2.39-0.96c0.5,0.38,1.03,0.7,1.62,0.94l0.36,2.54 c0.05,0.24,0.24,0.41,0.48,0.41h3.84c0.24,0,0.44-0.17,0.47-0.41l0.36-2.54c0.59-0.24,1.13-0.56,1.62-0.94l2.39,0.96 c0.22,0.08,0.47,0,0.59-0.22l1.92-3.32c0.12-0.22,0.07-0.47-0.12-0.61L19.14,12.94z M12,15.6c-1.98,0-3.6-1.62-3.6-3.6 s1.62-3.6,3.6-3.6s3.6,1.62,3.6,3.6S13.98,15.6,12,15.6z"/>  </symbol>
  <symbol id="icon-redeem" viewBox="0 0 24 24" fill="currentColor">
    <path d="M3.538 4C2.688 4 2 4.716 2 5.6v4.988h1.818c.118.593.565 1.414.91 1.883H2V18.4c0 .884.688 1.6 1.538 1.6h4.826v-4.706c-.029.03.03-.028 0 0l.909-.941.909.941V20h10.28c.85 0 1.538-.716 1.538-1.6v-5.93h-7.273c-.454-.47-1.027-1.289-.909-1.882H22V5.6c0-.884-.689-1.6-1.538-1.6h-10.28v1.684c-.264.057-.662.085-.91.198-.246-.113-.645-.14-.908-.198V4H3.538zm3.847 3.2c.593 0 1.129.24 1.538.623.41-.383.945-.623 1.538-.623 1.273 0 2.308 1.077 2.308 2.4 0 1.22-.883 2.22-2.018 2.37l1.024 1.064c.3.313.3.819 0 1.132a.752.752 0 0 1-.544.234.752.752 0 0 1-.544-.234L8.923 12.33 7.16 14.166a.752.752 0 0 1-.544.234.752.752 0 0 1-.543-.234.822.822 0 0 1 0-1.132l1.023-1.064c-1.135-.15-2.018-1.15-2.018-2.37 0-1.323 1.035-2.4 2.308-2.4zm0 1.6c-.425 0-.77.358-.77.8 0 .442.345.8.77.8h.769v-.8c0-.442-.345-.8-.77-.8zm3.076 0c-.424 0-.769.358-.769.8v.8h.77c.424 0 .769-.358.769-.8 0-.442-.345-.8-.77-.8zm5.385 7.2c.425 0 .77.358.77.8 0 .442-.345.8-.77.8-.425 0-.77-.358-.77-.8 0-.442.345-.8.77-.8zm3.077 0c.425 0 .77.358.77.8 0 .442-.345.8-.77.8-.424 0-.77-.358-.77-.8 0-.442.346-.8.77-.8z"/>
  </symbol>
  <symbol id="icon-sell" viewBox="0 0 11 11" fill="currentColor">
    <path d="M5.495.084A5.414 5.414 0 0 0 .084 5.5a5.414 5.414 0 0 0 5.411 5.417A5.42 5.42 0 0 0 10.917 5.5 5.42 5.42 0 0 0 5.495.084zm.006 9.75A4.332 4.332 0 0 1 1.167 5.5a4.332 4.332 0 0 1 4.334-4.333A4.332 4.332 0 0 1 9.834 5.5a4.332 4.332 0 0 1-4.333 4.334z"/>
    <path d="M5.771 2.791H4.96v3.25l2.844 1.707.406-.667-2.438-1.446V2.791z"/>
  </symbol>
  <symbol id="icon-items" viewBox="0 0 14 14" fill="currentColor">
    <path d="M0 0v14h14V0H0zm6.222 12.444H1.556V7.778h4.666v4.666zm0-6.222H1.556V1.556h4.666v4.666zm6.222 6.222H7.778V7.778h4.666v4.666zm0-6.222H7.778V1.556h4.666v4.666z"/>
  </symbol>
  <symbol id="icon-language" viewBox="0 0 24 24" fill="currentColor">
    <path d="M11.99 2C6.47 2 2 6.48 2 12C2 17.52 6.47 22 11.99 22C17.52 22 22 17.52 22 12C22 6.48 17.52 2 11.99 2ZM18.92 8H15.97C15.65 6.75 15.19 5.55 14.59 4.44C16.43 5.07 17.96 6.35 18.92 8ZM12 4.04C12.83 5.24 13.48 6.57 13.91 8H10.09C10.52 6.57 11.17 5.24 12 4.04ZM4.26 14C4.1 13.36 4 12.69 4 12C4 11.31 4.1 10.64 4.26 10H7.64C7.56 10.66 7.5 11.32 7.5 12C7.5 12.68 7.56 13.34 7.64 14H4.26ZM5.08 16H8.03C8.35 17.25 8.81 18.45 9.41 19.56C7.57 18.93 6.04 17.66 5.08 16V16ZM8.03 8H5.08C6.04 6.34 7.57 5.07 9.41 4.44C8.81 5.55 8.35 6.75 8.03 8V8ZM12 19.96C11.17 18.76 10.52 17.43 10.09 16H13.91C13.48 17.43 12.83 18.76 12 19.96ZM14.34 14H9.66C9.57 13.34 9.5 12.68 9.5 12C9.5 11.32 9.57 10.65 9.66 10H14.34C14.43 10.65 14.5 11.32 14.5 12C14.5 12.68 14.43 13.34 14.34 14ZM14.59 19.56C15.19 18.45 15.65 17.25 15.97 16H18.92C17.96 17.65 16.43 18.93 14.59 19.56V19.56ZM16.36 14C16.44 13.34 16.5 12.68 16.5 12C16.5 11.32 16.44 10.66 16.36 10H19.74C19.9 10.64 20 11.31 20 12C20 12.69 19.9 13.36 19.74 14H16.36Z"/>
  </symbol>
  <symbol id="icon-forum" viewBox="0 0 24 24" fill="currentColor">
    <path d="M21 6h-2v9H6v2c0 .55.45 1 1 1h11l4 4V7c0-.55-.45-1-1-1zm-4 6V3c0-.55-.45-1-1-1H3c-.55 0-1 .45-1 1v14l4-4h10c.55 0 1-.45 1-1z"/>
  </symbol>
  <symbol id="icon-notifications" viewBox="0 0 24 24" fill="currentColor">
    <path d="M12 22c1.1 0 2-.9 2-2h-4c0 1.1.89 2 2 2zm6-6v-5c0-3.07-1.64-5.64-4.5-6.32V4c0-.83-.67-1.5-1.5-1.5s-1.5.67-1.5 1.5v.68C7.63 5.36 6 7.92 6 11v5l-2 2v1h16v-1l-2-2z"/>
  </symbol>
  <symbol id="icon-arrow-up" viewBox="0 0 24 24" fill="currentColor">
    <path xmlns="http://www.w3.org/2000/svg" d="M7.41 15.41L12 10.83l4.59 4.58L18 14l-6-6-6 6z"/>
  </symbol>
  <symbol id="icon-arrow-down" viewBox="0 0 24 24" fill="currentColor">
    <path xmlns="http://www.w3.org/2000/svg" d="M7.41 8.59L12 13.17l4.59-4.58L18 10l-6 6-6-6 1.41-1.41z"/>
  </symbol>
  <symbol id="icon-arrow-left" viewBox="0 0 24 24" fill="currentColor">
    <path xmlns="http://www.w3.org/2000/svg" d="M15.41 16.59L10.83 12l4.58-4.59L14 6l-6 6 6 6 1.41-1.41z"/>
  </symbol>
  <symbol id="icon-arrow-right" viewBox="0 0 24 24" fill="currentColor">
    <path xmlns="http://www.w3.org/2000/svg" d="M8.59 16.59L13.17 12 8.59 7.41 10 6l6 6-6 6-1.41-1.41z"/>
  </symbol>
  <symbol id="icon-double-arrows-down" viewBox="0 0 24 24" fill="currentColor">
    <path d="M15.9855 12.6362L12.0909 16.5695L8.19636 12.6362L7 13.8471L12.0909 18.9999L17.1818 13.8471L15.9855 12.6362Z"/>
    <path d="M15.9855 5L12.0909 8.93326L8.19636 5L7 6.2109L12.0909 11.3636L17.1818 6.2109L15.9855 5Z"/>
  </symbol>
  <symbol id="icon-search" viewBox="0 0 24 24" fill="currentColor">
    <path xmlns="http://www.w3.org/2000/svg" d="M15.5 14h-.79l-.28-.27C15.41 12.59 16 11.11 16 9.5 16 5.91 13.09 3 9.5 3S3 5.91 3 9.5 5.91 16 9.5 16c1.61 0 3.09-.59 4.23-1.57l.27.28v.79l5 4.99L20.49 19l-4.99-5zm-6 0C7.01 14 5 11.99 5 9.5S7.01 5 9.5 5 14 7.01 14 9.5 11.99 14 9.5 14z"/>
  </symbol>
  <symbol id="icon-refresh" viewBox="0 0 24 24" fill="currentColor">
    <path xmlns="http://www.w3.org/2000/svg" d="M17.65 6.35C16.2 4.9 14.21 4 12 4c-4.42 0-7.99 3.58-7.99 8s3.57 8 7.99 8c3.73 0 6.84-2.55 7.73-6h-2.08c-.82 2.33-3.04 4-5.65 4-3.31 0-6-2.69-6-6s2.69-6 6-6c1.66 0 3.14.69 4.22 1.78L13 11h7V4l-2.35 2.35z"/>
  </symbol>
  <symbol id="icon-filter" viewBox="0 0 24 24" fill="currentColor">
    <path xmlns="http://www.w3.org/2000/svg" d="M10 18h4v-2h-4v2zM3 6v2h18V6H3zm3 7h12v-2H6v2z"/>
  </symbol>
   <symbol id="icon-close" viewBox="0 0 24 24" fill="currentColor">
     <path xmlns="http://www.w3.org/2000/svg" d="M19 6.41L17.59 5 12 10.59 6.41 5 5 6.41 10.59 12 5 17.59 6.41 19 12 13.41 17.59 19 19 17.59 13.41 12z"/>
   </symbol>
  <symbol id="icon-info" viewBox="0 0 24 24" fill="currentColor">
    <path xmlns="http://www.w3.org/2000/svg" d="M12 2C6.48 2 2 6.48 2 12s4.48 10 10 10 10-4.48 10-10S17.52 2 12 2zm1 15h-2v-6h2v6zm0-8h-2V7h2v2z"/>
  </symbol>
  <symbol id="icon-delete" viewBox="0 0 84 108" fill="currentColor">
    <path d="M6.50016 95.4167C6.50016 101.925 11.8252 107.25 18.3335 107.25H65.6668C72.1752 107.25 77.5002 101.925 77.5002 95.4167V24.4167H6.50016V95.4167ZM21.0552 53.29L29.3977 44.9475L42.0002 57.4908L54.5435 44.9475L62.886 53.29L50.3427 65.8333L62.886 78.3767L54.5435 86.7192L42.0002 74.1758L29.4568 86.7192L21.1143 78.3767L33.6577 65.8333L21.0552 53.29ZM62.7085 6.66667L56.7918 0.75H27.2085L21.2918 6.66667H0.583496V18.5H83.4168V6.66667H62.7085Z"/>
  </symbol>
  <symbol id="icon-active" viewBox="0 0 10 10" fill="currentColor">
    <rect width="10" height="10" rx="5"/>
  </symbol>
  <symbol id="icon-inactive" viewBox="0 0 10 10" fill="currentColor">
    <rect width="10" height="10" rx="5" fill="#F1625F"/>
  </symbol>
  <symbol id="icon-lock" viewBox="0 0 9 12" fill="currentColor">
    <path d="M8.747 4.5h-.75V3.498A3.503 3.503 0 0 0 4.5 0 3.503 3.503 0 0 0 1 3.499v1H.25A.251.251 0 0 0 0 4.75V11C0 11.55.448 12 1 12h7c.55 0 1-.448 1-1V4.75a.255.255 0 0 0-.253-.25zm-3.5 5.22a.25.25 0 0 1-.064.194.246.246 0 0 1-.185.085h-1a.246.246 0 0 1-.186-.085.258.258 0 0 1-.063-.194l.157-1.418a.99.99 0 0 1-.41-.803 1.002 1.002 0 0 1 2.001 0 .983.983 0 0 1-.41.803l.16 1.418zm1.25-5.22H2.5V3.498a2 2 0 0 1 1.999-2c1.101 0 1.999.898 1.999 2v1z" fill="#848484"/>
  </symbol>
  <symbol id="icon-unlock" viewBox="0 0 10 13" fill="currentColor">
    <path d="M9.719 4.875h-.833V3.791C8.886 1.7 7.14 0 4.999 0 3.27 0 1.76 1.094 1.297 2.633c-.045.15-.04.157-.04.157 0 .15.125.272.28.272h1.11a.276.276 0 0 0 .28-.272S3.354 1.625 5 1.625c1.227 0 2.221.972 2.221 2.166v1.084H.28A.275.275 0 0 0 0 5.147v6.771C0 12.515.497 13 1.112 13h7.776C9.5 13 10 12.515 10 11.916v-6.77a.28.28 0 0 0-.281-.271zm-3.89 5.657a.276.276 0 0 1-.276.302H4.442a.276.276 0 0 1-.276-.302l.174-1.536c-.284-.2-.456-.52-.456-.871 0-.597.498-1.084 1.112-1.084.615 0 1.112.485 1.112 1.084 0 .35-.17.67-.456.87l.177 1.537z"/>
  </symbol>
  <symbol id="icon-help" viewBox="0 -1 19 19"  fill="currentColor">
    <path d="M7.933 0a8 8 0 1 0 .215 16 8 8 0 0 0-.215-16zM7.91 12.87l-.044-.001c-.68-.02-1.16-.521-1.14-1.192.019-.659.51-1.137 1.168-1.137h.04c.699.022 1.173.518 1.153 1.207-.02.661-.503 1.123-1.177 1.123zm2.862-5.68c-.16.227-.512.51-.955.855l-.488.337c-.268.208-.43.404-.49.597-.048.152-.072.192-.076.5v.08H6.896l.006-.158c.022-.649.038-1.03.307-1.345.422-.495 1.352-1.094 1.391-1.12.133-.1.246-.214.33-.336.195-.27.282-.482.282-.691 0-.29-.086-.557-.256-.796-.164-.23-.474-.346-.923-.346-.445 0-.75.14-.932.43a1.73 1.73 0 0 0-.282.931v.08H4.898l.004-.083c.05-1.178.47-2.025 1.248-2.52.49-.315 1.098-.475 1.808-.475.93 0 1.715.226 2.333.672.626.451.944 1.128.944 2.01a2.3 2.3 0 0 1-.464 1.378z"/>
  </symbol>
  <symbol id="icon-transactions" viewBox="0 0 16 17" fill="currentColor">
    <path fill-rule="evenodd" clip-rule="evenodd" d="M16 1C16 0.447715 15.5523 0 15 0H1C0.447715 0 0 0.447715 0 1V2V14V15V16C0 16.5523 0.447715 17 1 17H3C3 16.4473 3.44775 16 4 16C4.05859 16 4.11572 16.0049 4.17139 16.0146C4.27246 16.0322 4.36816 16.0645 4.45605 16.1094C4.77881 16.2754 5 16.6113 5 17L7 17C7 16.4473 7.44775 16 8 16C8.2041 16 8.39404 16.0605 8.55225 16.166C8.82227 16.3447 9 16.6514 9 17H11C11 16.4473 11.4478 16 12 16C12.5522 16 13 16.4473 13 17H15C15.5523 17 16 16.5523 16 16V15V14V2V1ZM14 2L2 2L2 4L2 5L2 14L14 14L14 5V4V2ZM12 6C12 5.44772 11.5523 5 11 5H5C4.44772 5 4 5.44772 4 6C4 6.55228 4.44772 7 5 7H11C11.5523 7 12 6.55228 12 6ZM4 10C4 9.44771 4.44772 9 5 9H9C9.55228 9 10 9.44771 10 10C10 10.5523 9.55228 11 9 11H5C4.44772 11 4 10.5523 4 10Z"/>
  </symbol>
  <symbol id="icon-p2p-general" viewBox="0 0 24 20" fill="none">
    <path fill-rule="evenodd" clip-rule="evenodd" d="M10 0C10.5523 0 11 0.447716 11 1C11 1.55228 10.5523 2 10 2H7C6.44772 2 6 1.55228 6 1C6 0.447716 6.44772 0 7 0H10ZM8 5C8 4.44772 7.55228 4 7 4H4C3.44772 4 3 4.44772 3 5C3 5.55228 3.44772 6 4 6H7C7.55228 6 8 5.55228 8 5ZM21.8182 5.36362C23.0232 5.36362 24 6.34045 24 7.54543C24 8.7504 23.0232 9.72723 21.8182 9.72723C20.6132 9.72723 19.6364 8.7504 19.6364 7.54543C19.6364 6.34045 20.6132 5.36362 21.8182 5.36362ZM19.0917 9.40822C18.7497 8.951 18.1085 8.84203 17.6098 9.11683C16.5815 9.68539 14.5819 11.0002 13.955 12.9309C13.3169 14.8969 14.8744 15.6411 15.7617 16.0651L15.762 16.0652C16.0667 16.2108 16.2923 16.3186 16.3227 16.4252C16.3473 16.5117 16.3454 16.6932 16.343 16.927V16.9275C16.3339 17.8208 16.5812 18.9362 18 19C19 19 19.2549 18.4132 19.3031 16.9891C19.3133 16.6889 19.3238 16.3785 19.3481 16.0675C19.451 14.7344 18.3911 14.6285 17.8052 14.5699C17.6061 14.55 17.4617 14.5356 17.4364 14.4803C17.3803 14.3547 17.7458 13.9132 18.2255 13.3337L18.2257 13.3335C18.5788 12.9069 18.9938 12.4056 19.3481 11.9004C19.892 11.1257 19.5856 10.0668 19.0917 9.40822ZM12.4117 15.6765C12.3096 15.8636 12.0599 16.0095 11.8462 16C11.0886 15.9668 9.13773 16.0273 9 16.9891C8.8219 18.221 10.4023 19.3593 11.9792 18.902C13.1523 18.5633 14.2379 17.5196 14.6393 17.086C14.7367 16.9818 14.7248 16.8183 14.6132 16.7307C14.2237 16.4203 13.4068 15.7001 13.2856 15.0392C13.021 14.5396 12.7208 15.1 12.4703 15.5676L12.4699 15.5683C12.4502 15.6051 12.4308 15.6414 12.4117 15.6765ZM5 9C5 8.44772 4.55228 8 4 8H1C0.447723 8 0 8.44772 0 9C0 9.55228 0.447723 10 1 10H4C4.55228 10 5 9.55228 5 9ZM14.6816 1.88419C14.2585 1.5292 13.6277 1.58438 13.2727 2.00745L8.13043 8.13581C7.77545 8.55888 7.83063 9.18964 8.25369 9.54464L11.3179 12.1158C11.7409 12.4708 12.3717 12.4156 12.7267 11.9925L17.869 5.86418C18.224 5.4411 18.1688 4.81035 17.7458 4.45535L14.6816 1.88419Z" fill="currentColor"/>
  </symbol>
  <symbol id="icon-my-items" viewBox="0 0 24 24" fill="currentColor">
    <path d="M17.625 4H6.375C5.23601 3.99955 4.14175 4.43312 3.32478 5.20858C2.50781 5.98403 2.03254 7.04022 2 8.15267V18.6565C2 18.8329 2.03557 19.0076 2.10467 19.1706C2.17377 19.3336 2.27505 19.4817 2.40273 19.6065C2.53041 19.7312 2.68199 19.8302 2.84881 19.8977C3.01563 19.9652 3.19443 20 3.375 20H20.5C20.8771 20.0013 21.2408 19.8637 21.5188 19.6148C21.7968 19.3658 21.9686 19.0237 22 18.6565V8.15267C21.9675 7.04022 21.4922 5.98403 20.6752 5.20858C19.8583 4.43312 18.764 3.99955 17.625 4ZM3.875 8.15267C3.90543 7.51439 4.17859 6.9102 4.641 6.45838C5.10341 6.00656 5.72176 5.73966 6.375 5.70992H17.625C17.9697 5.70992 18.3111 5.77627 18.6295 5.90516C18.948 6.03406 19.2374 6.22299 19.4812 6.46116C19.7249 6.69933 19.9183 6.98208 20.0502 7.29327C20.1821 7.60445 20.25 7.93798 20.25 8.27481H3.875V8.15267ZM13.5 10.1069V11.9389C13.5 12.1154 13.4644 12.2901 13.3953 12.4531C13.3262 12.6161 13.225 12.7642 13.0973 12.8889C12.9696 13.0137 12.818 13.1127 12.6512 13.1802C12.4844 13.2477 12.3056 13.2824 12.125 13.2824C11.9444 13.2824 11.7656 13.2477 11.5988 13.1802C11.432 13.1127 11.2804 13.0137 11.1527 12.8889C11.025 12.7642 10.9238 12.6161 10.8547 12.4531C10.7856 12.2901 10.75 12.1154 10.75 11.9389V10.1069H13.5ZM3.875 18.2901V17.4351V16.871V16.5V16.0916V14.9924V14.6078V14V13.5267V12.4275V11.9389V11.3796V11.084V10.1069H8.875V11.6947C8.83795 12.4978 9.11408 13.2848 9.64766 13.8969C10.1812 14.5089 10.9326 14.9004 11.75 14.9924C12.1809 15.0262 12.6143 14.9722 13.0228 14.834C13.4313 14.6957 13.806 14.4762 14.1232 14.1892C14.4404 13.9022 14.6932 13.5541 14.8656 13.1667C15.0381 12.7794 15.1264 12.3613 15.125 11.9389V10.1069H20.25V11.084V11.5613V11.9389V12.5496V13.6488V14V14.356V15.1145V16.2137V17V17.358V17.6794V18.29L3.875 18.2901Z"/>
  </symbol>
  <symbol id="icon-history" viewBox="0 0 24 24" fill="currentColor">
    <path d="M19.7656 7.48665L14.5656 2.23665C14.4152 2.08481 14.212 2 14 2H5.6C4.716 2 4 2.72288 4 3.61538V20.3846C4 21.2771 4.716 22 5.6 22H18.4C19.284 22 20 21.2771 20 20.3846V8.05769C20 7.84365 19.916 7.6385 19.7656 7.48665ZM17.3656 13.8787L14.1656 17.1095C14.0096 17.267 13.8048 17.3462 13.6 17.3462C13.3952 17.3462 13.1904 17.267 13.0344 17.1095L10.4 14.4498L7.7656 17.1095C7.4528 17.4253 6.9472 17.4253 6.6344 17.1095C6.3216 16.7937 6.3216 16.2832 6.6344 15.9674L9.8344 12.7367C10.1472 12.4208 10.6528 12.4208 10.9656 12.7367L13.6 15.3964L16.2344 12.7367C16.5472 12.4208 17.0528 12.4208 17.3656 12.7367C17.6784 13.0525 17.6784 13.5629 17.3656 13.8787ZM14.4 8.46154C13.9584 8.46154 13.6 8.09969 13.6 7.65385V3.53785L18.4768 8.46154H14.4Z"/>
  </symbol>
  <symbol id="icon-rocket" viewBox="0 0 16 23" fill="#FFBB55">
    <path d="M8.00005 0.599609C8.00005 0.599609 3.20005 3.79961 3.20005 10.9996C3.20005 11.1267 3.21097 11.254 3.2188 11.3809C2.39155 12.0497 0.800049 13.4824 0.800049 14.6355C0.800049 16.0907 2.25474 18.9996 2.25474 18.9996L4.89536 15.698L5.60005 17.3996H10.4L11.1047 15.698L13.7454 18.9996C13.7454 18.9996 15.2 16.0907 15.2 14.6355C15.2 13.4824 13.6086 12.0497 12.7813 11.3809C12.7891 11.254 12.8 11.1267 12.8 10.9996C12.8 3.79961 8.00005 0.599609 8.00005 0.599609ZM8.00005 6.19961C8.88405 6.19961 9.60005 6.91561 9.60005 7.79961C9.60005 8.68361 8.88405 9.39961 8.00005 9.39961C7.11605 9.39961 6.40005 8.68361 6.40005 7.79961C6.40005 6.91561 7.11605 6.19961 8.00005 6.19961ZM5.93442 18.1996C5.72722 18.4668 5.60005 18.7739 5.60005 19.1059C5.60005 20.6283 8.00005 22.1996 8.00005 22.1996C8.00005 22.1996 10.4 20.6491 10.4 19.1059C10.4 18.7739 10.2736 18.4676 10.0672 18.1996H9.39067C9.40507 18.2612 9.44067 18.3161 9.44067 18.3809C9.44067 19.4681 8.00005 20.0121 8.00005 20.0121C8.00005 20.0121 6.55942 19.4681 6.55942 18.3809C6.55942 18.3169 6.59502 18.2612 6.60942 18.1996H5.93442Z"/>
  </symbol>
  <symbol id="icon-language" viewBox="0 0 24 24" fill="currentColor">
    <path d="M11.99 2C6.47 2 2 6.48 2 12C2 17.52 6.47 22 11.99 22C17.52 22 22 17.52 22 12C22 6.48 17.52 2 11.99 2ZM18.92 8H15.97C15.65 6.75 15.19 5.55 14.59 4.44C16.43 5.07 17.96 6.35 18.92 8ZM12 4.04C12.83 5.24 13.48 6.57 13.91 8H10.09C10.52 6.57 11.17 5.24 12 4.04ZM4.26 14C4.1 13.36 4 12.69 4 12C4 11.31 4.1 10.64 4.26 10H7.64C7.56 10.66 7.5 11.32 7.5 12C7.5 12.68 7.56 13.34 7.64 14H4.26ZM5.08 16H8.03C8.35 17.25 8.81 18.45 9.41 19.56C7.57 18.93 6.04 17.66 5.08 16V16ZM8.03 8H5.08C6.04 6.34 7.57 5.07 9.41 4.44C8.81 5.55 8.35 6.75 8.03 8V8ZM12 19.96C11.17 18.76 10.52 17.43 10.09 16H13.91C13.48 17.43 12.83 18.76 12 19.96ZM14.34 14H9.66C9.57 13.34 9.5 12.68 9.5 12C9.5 11.32 9.57 10.65 9.66 10H14.34C14.43 10.65 14.5 11.32 14.5 12C14.5 12.68 14.43 13.34 14.34 14ZM14.59 19.56C15.19 18.45 15.65 17.25 15.97 16H18.92C17.96 17.65 16.43 18.93 14.59 19.56V19.56ZM16.36 14C16.44 13.34 16.5 12.68 16.5 12C16.5 11.32 16.44 10.66 16.36 10H19.74C19.9 10.64 20 11.31 20 12C20 12.69 19.9 13.36 19.74 14H16.36Z"/>
  </symbol>
  <symbol id="icon-redeem" viewBox="0 0 24 24" fill="currentColor">
    <path d="M3.538 4C2.688 4 2 4.716 2 5.6v4.988h1.818c.118.593.565 1.414.91 1.883H2V18.4c0 .884.688 1.6 1.538 1.6h4.826v-4.706c-.029.03.03-.028 0 0l.909-.941.909.941V20h10.28c.85 0 1.538-.716 1.538-1.6v-5.93h-7.273c-.454-.47-1.027-1.289-.909-1.882H22V5.6c0-.884-.689-1.6-1.538-1.6h-10.28v1.684c-.264.057-.662.085-.91.198-.246-.113-.645-.14-.908-.198V4H3.538zm3.847 3.2c.593 0 1.129.24 1.538.623.41-.383.945-.623 1.538-.623 1.273 0 2.308 1.077 2.308 2.4 0 1.22-.883 2.22-2.018 2.37l1.024 1.064c.3.313.3.819 0 1.132a.752.752 0 0 1-.544.234.752.752 0 0 1-.544-.234L8.923 12.33 7.16 14.166a.752.752 0 0 1-.544.234.752.752 0 0 1-.543-.234.822.822 0 0 1 0-1.132l1.023-1.064c-1.135-.15-2.018-1.15-2.018-2.37 0-1.323 1.035-2.4 2.308-2.4zm0 1.6c-.425 0-.77.358-.77.8 0 .442.345.8.77.8h.769v-.8c0-.442-.345-.8-.77-.8zm3.076 0c-.424 0-.769.358-.769.8v.8h.77c.424 0 .769-.358.769-.8 0-.442-.345-.8-.77-.8zm5.385 7.2c.425 0 .77.358.77.8 0 .442-.345.8-.77.8-.425 0-.77-.358-.77-.8 0-.442.345-.8.77-.8zm3.077 0c.425 0 .77.358.77.8 0 .442-.345.8-.77.8-.424 0-.77-.358-.77-.8 0-.442.346-.8.77-.8z"/>
  </symbol>
  <symbol id="icon-details" viewBox="0 0 12 12" fill="currentColor">
    <path d="M6 .25a5.75 5.75 0 1 0 0 11.5A5.75 5.75 0 0 0 6 .25zm.75 9.06a.75.75 0 0 1-1.5 0v-4.3a.75.75 0 0 1 1.5 0v4.3zm0-6.59a.75.75 0 1 1-1.5 0 .75.75 0 0 1 1.5 0z"/>
  </symbol>
  <symbol id="icon-faq" viewBox="0 0 24 24" fill="currentColor">
    <path fill-rule="evenodd" clip-rule="evenodd" d="M12 2C6.47715 2 2 6.47715 2 12C2 17.5228 6.47715 22 12 22C17.5228 22 22 17.5228 22 12C22 6.47715 17.5228 2 12 2ZM11.5903 11.8514C11.3619 12.1977 11.2477 12.6356 11.2477 13.1653H13.4972C13.4972 12.8394 13.5816 12.5644 13.7505 12.3403C13.9193 12.106 14.1875 11.8208 14.5549 11.4847C14.8628 11.1995 15.1111 10.95 15.2998 10.7361C15.4984 10.512 15.6623 10.2421 15.7914 9.92639C15.9305 9.61065 16 9.24398 16 8.82639C16 7.94028 15.6524 7.24768 14.9572 6.74861C14.2719 6.24954 13.3582 6 12.216 6C11.2427 6 10.3985 6.17824 9.68343 6.53472C8.97827 6.8912 8.41713 7.39537 8 8.04722L9.80261 9.13195C10.0509 8.77546 10.3538 8.50046 10.7114 8.30694C11.0788 8.10324 11.496 8.00139 11.9628 8.00139C12.4494 8.00139 12.8367 8.11343 13.1248 8.3375C13.4227 8.55139 13.5717 8.84676 13.5717 9.22361C13.5717 9.48843 13.4922 9.72778 13.3333 9.94167C13.1844 10.1454 12.946 10.4 12.6182 10.7056C12.1713 11.1231 11.8287 11.5051 11.5903 11.8514ZM11.352 16.6028C11.63 16.8676 11.9727 17 12.3799 17C12.7871 17 13.1248 16.8676 13.3929 16.6028C13.671 16.3278 13.8101 15.9968 13.8101 15.6097C13.8101 15.2227 13.676 14.9019 13.4078 14.6472C13.1397 14.3824 12.797 14.25 12.3799 14.25C11.9628 14.25 11.6201 14.3824 11.352 14.6472C11.0838 14.9019 10.9497 15.2227 10.9497 15.6097C10.9497 15.9968 11.0838 16.3278 11.352 16.6028Z"/>
  </symbol>
  <symbol id="icon-horn" viewBox="0 -2 24 23" fill="currentColor">
    <path fill-rule="evenodd" clip-rule="evenodd" d="m14.3158 0-.8947 1.77778-6.26321 2.66666v7.11116l6.26321 2.6666.8947 1.7778h1.7895v-6.46354c.2715-.15577.4971-.3797.6542-.64935.157-.26966.2399-.57558.2405-.88711-.0002-.31183-.0831-.6181-.2401-.88809s-.3828-.49419-.6546-.6501v-6.46181zm-12.52633 4.44444c-.984207 0-1.78947.8-1.78947 1.77778v3.55556c0 .97782.805263 1.77782 1.78947 1.77782h1.78948v4.4444h1.78947v-6.22222-5.33334z"/>
  </symbol>
  <symbol id="icon-blog" viewBox="0 0 24 24" fill="currentColor">
    <path d="M17 2L14.5 4.5L19.5 9.5L22 7L17 2ZM12.8919 6.17155C12.4854 6.15967 12.0736 6.29633 11.7461 6.58008L11.7445 6.57682C10.8628 7.45849 9.5 7.83333 7.83333 7.83333C6.46667 7.83333 5.56098 8.67493 5.08431 10.2666C3.65598 15.0391 2.54272 18.4389 2.16439 19.6139L2.16927 19.6156C2.06344 19.8331 2 20.075 2 20.3333C2 20.4817 2.02602 20.6223 2.06185 20.7598L8.72852 14.0931C8.69268 13.9556 8.66667 13.815 8.66667 13.6667C8.66667 12.7458 9.4125 12 10.3333 12C10.7933 12 11.21 12.1866 11.5117 12.4883C11.8134 12.7899 12 13.2067 12 13.6667C12 14.5875 11.2542 15.3333 10.3333 15.3333C10.185 15.3333 10.0444 15.3073 9.9069 15.2715L3.24023 21.9382C3.37773 21.974 3.51833 22 3.66667 22C3.925 22 4.16694 21.9374 4.38444 21.8324L4.38607 21.8356C5.56107 21.4573 8.9609 20.3457 13.7334 18.9173C15.3251 18.4398 16.1667 17.5333 16.1667 16.1667C16.1667 14.5 16.5415 13.1372 17.4232 12.2555L17.4199 12.2539C17.9874 11.5989 17.9676 10.6099 17.3451 9.98828L15.6784 8.32162L14.0117 6.65495C13.7005 6.3437 13.2985 6.18342 12.8919 6.17155Z"/>
  </symbol>
  <symbol id="icon-partnership" viewBox="-2 -2 24 24" fill="currentColor">
    <path fill-rule="evenodd" clip-rule="evenodd" d="M10 20C15.5228 20 20 15.5228 20 10C20 4.47715 15.5228 0 10 0C4.47715 0 0 4.47715 0 10C0 15.5228 4.47715 20 10 20ZM11.5716 7.33688L10.4755 3.96353C10.3259 3.50287 9.67415 3.50287 9.52447 3.96353L8.4284 7.33688C8.36146 7.54289 8.16949 7.68237 7.95287 7.68237H4.40592C3.92156 7.68237 3.72017 8.30218 4.11203 8.58688L6.98157 10.6717C7.15682 10.7991 7.23015 11.0247 7.16321 11.2307L6.06714 14.6041C5.91746 15.0648 6.4447 15.4478 6.83656 15.1631L9.70611 13.0783C9.88135 12.9509 10.1186 12.9509 10.2939 13.0783L13.1634 15.1631C13.5553 15.4478 14.0825 15.0648 13.9329 14.6041L12.8368 11.2307C12.7699 11.0247 12.8432 10.7991 13.0184 10.6717L15.888 8.58688C16.2798 8.30218 16.0784 7.68237 15.5941 7.68237H12.0471C11.8305 7.68237 11.6385 7.54289 11.5716 7.33688Z"/>
  </symbol>
  <symbol id="icon-logout" viewBox="0 0 24 24" fill="currentColor">
    <path d="M19 3H5C3.895 3 3 3.895 3 5V19C3 20.105 3.895 21 5 21H19C20.105 21 21 20.105 21 19V5C21 3.895 20.105 3 19 3ZM19.707 12.707L16.407 16.007C16.212 16.202 15.956 16.3 15.7 16.3C15.444 16.3 15.188 16.202 14.993 16.007C14.602 15.616 14.602 14.984 14.993 14.593L16.586 13H9C8.447 13 8 12.553 8 12C8 11.447 8.447 11 9 11H16.586L14.993 9.407C14.602 9.016 14.602 8.384 14.993 7.993C15.384 7.602 16.016 7.602 16.407 7.993L19.707 11.293C20.098 11.684 20.098 12.316 19.707 12.707Z"/>
  </symbol>
  <symbol id="icon-steam" viewBox="0 0 16 12" xmlns="http://www.w3.org/2000/svg" fill="currentColor">
    <path d="M12.296 0a3.61 3.61 0 0 0-1.378.261 3.563 3.563 0 0 0-1.17.765c-.333.33-.598.72-.777 1.15a3.459 3.459 0 0 0-.265 1.357v.092l-2.28 3.279a2.212 2.212 0 0 0-1.578.436L1.376 5.93A1 1 0 0 0 0 6.856v.945a1 1 0 0 0 .628.928L3.796 10a2.5 2.5 0 0 0 .555 1.105c.276.318.627.562 1.023.712.64.249 1.35.244 1.986-.014a2.632 2.632 0 0 0 1.419-1.367c.14-.32.2-.667.175-1.015l3.332-2.335h.082a3.61 3.61 0 0 0 1.397-.25 3.564 3.564 0 0 0 1.185-.768c.34-.331.607-.726.787-1.162a3.524 3.524 0 0 0-.033-2.744 3.573 3.573 0 0 0-.808-1.154 3.64 3.64 0 0 0-1.198-.76 3.683 3.683 0 0 0-1.402-.247zM8.17 10.265c-.1.24-.25.457-.438.64a1.964 1.964 0 0 1-1.43.55 1.985 1.985 0 0 1-.762-.175 1.887 1.887 0 0 1-1.032-.944l1.176.538c.352.113.735.092 1.072-.06.337-.152.604-.423.747-.76a1.43 1.43 0 0 0 .025-1.056 1.46 1.46 0 0 0-.71-.794l-1.227-.518a2.095 2.095 0 0 1 2.143.48 2 2 0 0 1 .488 2.109l-.052-.01zm4.126-4.396a2.4 2.4 0 0 1-1.318-.393 2.344 2.344 0 0 1-.874-1.048 2.3 2.3 0 0 1-.135-1.35 2.33 2.33 0 0 1 .65-1.195 2.408 2.408 0 0 1 2.586-.506c.433.177.803.476 1.064.86.26.384.4.836.4 1.297a2.232 2.232 0 0 1-.673 1.673c-.222.22-.488.39-.78.505a2.334 2.334 0 0 1-.92.157z"/>
    <path d="M13.766 3.879a1.461 1.461 0 0 0-1.112-1.754 1.486 1.486 0 0 0-1.782 1.095 1.461 1.461 0 0 0 1.113 1.754 1.485 1.485 0 0 0 1.781-1.095z"/>
  </symbol>
  <symbol id="icon-offers" viewBox="0 0 24 23" xmlns="http://www.w3.org/2000/svg" fill="currentColor">
    <rect width="12" height="12" rx="6"/>
    <path d="M8.93078 5.73261L7.45496 3.25668C7.40719 3.18014 7.34046 3.11653 7.26089 3.07168C7.18133 3.02683 7.09148 3.00218 6.99959 3H4.06989C3.97277 3.00259 3.87811 3.03027 3.79557 3.08021H3.80106C3.72627 3.12366 3.66545 3.18664 3.62549 3.26203L3.07686 4.19786C3.03731 4.26352 3.01646 4.33829 3.01646 4.41443C3.01646 4.49058 3.03731 4.56534 3.07686 4.63101L3.74071 5.74865C3.78367 5.82561 3.80452 5.91244 3.80106 5.99999C3.80151 6.08957 3.77888 6.17783 3.73522 6.25667L3.0604 7.36896C3.02085 7.43463 3 7.50939 3 7.58554C3 7.66168 3.02085 7.73645 3.0604 7.80211L3.60903 8.73794C3.65074 8.81211 3.71116 8.87469 3.7846 8.91976H3.80106C3.8836 8.9697 3.97826 8.99738 4.07537 8.99997H7.01605C7.1086 9.00095 7.19971 8.97764 7.27983 8.93247C7.35995 8.88731 7.42613 8.82196 7.47142 8.74329L8.92529 6.26202C8.97327 6.18183 8.99901 6.09084 8.99997 5.99802C9.00093 5.90519 8.97709 5.81372 8.93078 5.73261ZM7.1971 6.26736L6.5936 7.2941C6.54583 7.37064 6.4791 7.43425 6.39954 7.4791C6.31997 7.52395 6.23012 7.5486 6.13824 7.55078H4.93124C4.85546 7.54968 4.78074 7.5333 4.71179 7.50265L5.44696 6.26202C5.49511 6.18072 5.52046 6.08851 5.52046 5.99464C5.52046 5.90077 5.49511 5.80855 5.44696 5.72726L4.7063 4.50267C4.76678 4.47539 4.83185 4.45908 4.89832 4.45454H6.11629C6.20884 4.45356 6.29995 4.47687 6.38007 4.52204C6.46019 4.5672 6.52637 4.63255 6.57166 4.71122L7.18064 5.73261C7.22737 5.80995 7.25336 5.89752 7.25624 5.98724C7.25912 6.07695 7.23878 6.16593 7.1971 6.24597V6.26736Z" fill="#1D1F20"/>
    <path fill-rule="evenodd" clip-rule="evenodd" d="M22 2C22 1.44772 21.5523 1 21 1L15 1C14.4477 1 14 1.44771 14 2C14 2.55228 14.4477 3 15 3L20 3L20 8C20 8.55228 20.4477 9 21 9C21.5523 9 22 8.55228 22 8L22 2Z"/>
    <path fill-rule="evenodd" clip-rule="evenodd" d="M2 21C2 21.5523 2.44771 22 3 22L9 22C9.55228 22 10 21.5523 10 21C10 20.4477 9.55228 20 9 20L4 20L4 15C4 14.4477 3.55228 14 3 14C2.44771 14 2 14.4477 2 15L2 21Z"/>
    <rect x="12" y="11" width="12" height="12" rx="6"/>
    <path fill-rule="evenodd" clip-rule="evenodd" d="M19.4013 13.8119C19.6443 13.7141 19.9047 13.6649 20.1672 13.6671C20.4336 13.6619 20.6983 13.7087 20.9462 13.8047C21.1941 13.9007 21.4202 14.0441 21.6115 14.2265C21.8028 14.409 21.9555 14.627 22.0607 14.8678C22.1659 15.1086 22.2216 15.3676 22.2246 15.6298C22.2285 15.891 22.1789 16.1503 22.0788 16.3923C21.9786 16.6343 21.83 16.8539 21.6417 17.0381C21.4535 17.2223 21.2294 17.3673 20.983 17.4645C20.7366 17.5617 20.4728 17.609 20.2073 17.6037H20.1615L18.3104 18.9008C18.3239 19.0938 18.2905 19.2871 18.213 19.4648C18.0601 19.8088 17.7775 20.081 17.4247 20.2241C17.072 20.3671 16.6765 20.3699 16.3218 20.2318C16.1018 20.1487 15.9063 20.0128 15.7532 19.8365C15.6001 19.6602 15.4941 19.4491 15.4449 19.2223L13.837 18.5773C13.5343 18.4559 13.3359 18.1626 13.3359 17.8364C13.3359 17.2699 13.9097 16.8836 14.4346 17.0968L16.0295 17.7447C16.2787 17.555 16.5931 17.4681 16.9063 17.5022L18.1728 15.6805V15.6298C18.1706 15.3714 18.2206 15.1152 18.32 14.876C18.4194 14.6369 18.5662 14.4197 18.7519 14.237C18.9375 14.0543 19.1583 13.9098 19.4013 13.8119ZM17.6314 19.7241C17.736 19.623 17.8188 19.5022 17.8748 19.3689L17.9035 19.3746C17.9751 19.174 17.9877 18.9576 17.9398 18.7503C17.8918 18.543 17.7854 18.3533 17.6326 18.203C17.4799 18.0527 17.2871 17.9479 17.0764 17.9007C16.8658 17.8536 16.6459 17.8659 16.4421 17.9364L17.1241 18.224C17.3071 18.317 17.4478 18.4744 17.5183 18.6649C17.5887 18.8553 17.5837 19.0649 17.5043 19.2519C17.4248 19.4389 17.2767 19.5896 17.0894 19.6739C16.9021 19.7583 16.6895 19.7702 16.4937 19.7073L15.8404 19.4084C15.9559 19.6491 16.1611 19.8369 16.4134 19.9329C16.5466 19.9932 16.6908 20.0264 16.8373 20.0305C16.9838 20.0347 17.1297 20.0097 17.2661 19.957C17.4026 19.9044 17.5268 19.8251 17.6314 19.7241ZM19.4349 16.7083C19.6517 16.8508 19.9065 16.9269 20.1672 16.9269C20.3418 16.9324 20.5157 16.9026 20.6781 16.8393C20.8406 16.7761 20.9881 16.6808 21.1117 16.5592C21.2352 16.4376 21.3321 16.2924 21.3963 16.1326C21.4606 15.9727 21.4909 15.8016 21.4853 15.6298C21.4853 15.3732 21.408 15.1224 21.2632 14.9091C21.1183 14.6958 20.9125 14.5295 20.6716 14.4314C20.4308 14.3332 20.1657 14.3075 19.9101 14.3576C19.6544 14.4076 19.4195 14.5311 19.2352 14.7126C19.0508 14.894 18.9253 15.1251 18.8744 15.3767C18.8236 15.6283 18.8497 15.8891 18.9494 16.1262C19.0492 16.3632 19.2181 16.5658 19.4349 16.7083ZM20.366 14.8474C20.81 14.9485 21.0868 15.3847 20.9841 15.8217C20.8814 16.2587 20.4382 16.531 19.9941 16.43C19.5501 16.3289 19.2733 15.8927 19.376 15.4557C19.4787 15.0187 19.9219 14.7464 20.366 14.8474Z" fill="#1D1F20"/>
  </symbol>
  <symbol id="icon-companion-home" viewBox="0 0 32 32" fill="currentColor" xmlns="http://www.w3.org/2000/svg">
    <path fill-rule="evenodd" clip-rule="evenodd" d="M16.36 7.10028L25.6933 12.8006C25.7872 12.8578 25.8645 12.9365 25.9181 13.0295C25.9716 13.1224 25.9998 13.2267 26 13.3326V25.3666C26 25.5346 25.9298 25.6957 25.8047 25.8145C25.6797 25.9333 25.5101 26 25.3333 26H6.66667C6.48986 26 6.32029 25.9333 6.19526 25.8145C6.07024 25.6957 6 25.5346 6 25.3666V13.3326C6.00019 13.2267 6.02836 13.1224 6.08193 13.0295C6.13551 12.9365 6.21278 12.8578 6.30667 12.8006L15.64 7.10028C15.7474 7.03481 15.8724 7 16 7C16.1276 7 16.2526 7.03481 16.36 7.10028ZM14 19.0329V24.7333H18V19.0329H14ZM19.3333 24.7333H24.6667V13.681L16 8.38602L7.33333 13.681V24.7333H12.6667V18.3996C12.6667 18.2316 12.7369 18.0705 12.8619 17.9517C12.987 17.8329 13.1565 17.7662 13.3333 17.7662H18.6667C18.8435 17.7662 19.013 17.8329 19.1381 17.9517C19.2631 18.0705 19.3333 18.2316 19.3333 18.3996V24.7333ZM16 11.3501C14.5364 11.3501 13.35 12.5365 13.35 14.0001C13.35 15.4637 14.5364 16.6501 16 16.6501C17.4635 16.6501 18.65 15.4637 18.65 14.0001C18.65 12.5365 17.4635 11.3501 16 11.3501ZM14.65 14.0001C14.65 13.2545 15.2544 12.6501 16 12.6501C16.7456 12.6501 17.35 13.2545 17.35 14.0001C17.35 14.7457 16.7456 15.3501 16 15.3501C15.2544 15.3501 14.65 14.7457 14.65 14.0001Z"/>
  </symbol>
  <symbol id="icon-companion-streams" viewBox="0 0 32 32" fill="currentColor" xmlns="http://www.w3.org/2000/svg">
    <path fill-rule="evenodd" clip-rule="evenodd" d="M12.2196 7.28033C11.9267 6.98744 11.9267 6.51256 12.2196 6.21967C12.5125 5.92678 12.9874 5.92678 13.2803 6.21967L15.7499 8.68934L18.2196 6.21967C18.5125 5.92678 18.9874 5.92678 19.2803 6.21967C19.5732 6.51256 19.5732 6.98744 19.2803 7.28033L17.5606 9H22C24.2091 9 26 10.7909 26 13V22C26 24.2091 24.2091 26 22 26H10C7.79086 26 6 24.2091 6 22V13C6 10.7909 7.79086 9 10 9H13.9393L12.2196 7.28033ZM22 10.5H10C8.61929 10.5 7.5 11.6193 7.5 13V22C7.5 23.3807 8.61929 24.5 10 24.5H22C23.3807 24.5 24.5 23.3807 24.5 22V13C24.5 11.6193 23.3807 10.5 22 10.5ZM22.4685 15.5857C22.792 15.3269 22.8444 14.855 22.5857 14.5315C22.3269 14.2081 21.855 14.1556 21.5315 14.4144L17.1703 17.9033L15.8056 15.8563C15.464 15.3439 14.7568 15.2341 14.276 15.6188L9.53151 19.4144C9.20806 19.6731 9.15562 20.1451 9.41438 20.4685C9.67313 20.792 10.1451 20.8444 10.4685 20.5857L14.8298 17.0967L16.1945 19.1438C16.5361 19.6562 17.2432 19.766 17.7241 19.3813L22.4685 15.5857Z"/>
  </symbol>
  <symbol id="icon-companion-league" viewBox="0 0 32 32" fill="currentColor" xmlns="http://www.w3.org/2000/svg">
    <path fill-rule="evenodd" clip-rule="evenodd" d="M14.7204 7.39732C14.7855 7.38786 14.8418 7.34694 14.8709 7.28792L15.8206 5.36364C15.894 5.21499 16.106 5.21499 16.1793 5.36364L17.129 7.28792C17.1581 7.34694 17.2145 7.38786 17.2796 7.39732L19.4032 7.7059C19.5672 7.72973 19.6327 7.93133 19.514 8.04704L17.9774 9.54488C17.9302 9.59083 17.9087 9.65703 17.9199 9.72191L18.2826 11.8369C18.3106 12.0003 18.1391 12.1249 17.9924 12.0477L16.093 11.0492C16.0348 11.0185 15.9652 11.0185 15.9069 11.0492L14.0075 12.0477C13.8608 12.1249 13.6893 12.0003 13.7173 11.8369L14.0801 9.72191C14.0912 9.65703 14.0697 9.59083 14.0226 9.54488L12.4859 8.04704C12.3672 7.93133 12.4327 7.72973 12.5968 7.7059L14.7204 7.39732ZM19.5901 6.41941L18.0388 6.19399L17.3451 4.7883C16.7949 3.67344 15.2051 3.67343 14.6549 4.7883L13.9611 6.19399L12.4098 6.41941C11.1795 6.59818 10.6882 8.11014 11.5785 8.97795L12.701 10.0721L12.436 11.6171C12.2259 12.8425 13.512 13.7769 14.6125 13.1984L16 12.4689L17.3875 13.1984C18.4879 13.7769 19.7741 12.8425 19.5639 11.6171L19.2989 10.0721L20.4214 8.97795C21.3117 8.11015 20.8204 6.59819 19.5901 6.41941ZM10.0308 16.6692V19.3462H8.69166C8.51418 19.3462 8.34397 19.4167 8.21848 19.5422C8.09298 19.6677 8.02247 19.8379 8.02246 20.0154V22.6924H6.68397C6.50649 22.6924 6.33628 22.7629 6.21079 22.8884C6.08529 23.0139 6.01478 23.1841 6.01477 23.3616V26.7076C6.01477 26.8851 6.08528 27.0553 6.21078 27.1808C6.33628 27.3063 6.50649 27.3768 6.68397 27.3768H25.4216C25.5991 27.3768 25.7693 27.3063 25.8948 27.1808C26.0203 27.0553 26.0908 26.8851 26.0908 26.7076V23.3616C26.0908 23.1841 26.0203 23.0139 25.8948 22.8884C25.7693 22.7629 25.5991 22.6924 25.4216 22.6924H24.0833V20.0154C24.0833 19.8379 24.0128 19.6677 23.8873 19.5422C23.7618 19.4167 23.5916 19.3462 23.4141 19.3462H22.0764V16.6692C22.0764 16.4917 22.0059 16.3215 21.8804 16.196C21.7549 16.0705 21.5847 16 21.4072 16H10.7C10.5225 16 10.3523 16.0705 10.2268 16.196C10.1013 16.3215 10.0308 16.4917 10.0308 16.6692ZM11.3692 19.346H20.738V17.3384H11.3692V19.346ZM22.7449 22.6922H9.36087V20.6846H22.7449V22.6922ZM24.7524 26.0384H7.35317V24.0308H24.7524V26.0384Z"/>
  </symbol>
  <symbol id="icon-companion-craft" viewBox="0 0 32 32" fill="currentColor" xmlns="http://www.w3.org/2000/svg">
    <path fill-rule="evenodd" clip-rule="evenodd" d="M24.0379 7.04687L23.6276 9.49618L21.5762 7.45512L24.0379 7.04687ZM20.4308 6.69481C20.4227 6.69763 20.4148 6.70067 20.4069 6.70392C20.3997 6.70689 20.3926 6.71003 20.3855 6.71334C20.3363 6.7365 20.2915 6.76794 20.2529 6.80632L8.51893 18.481C8.5189 18.4811 8.51886 18.4811 8.51883 18.4811C8.51433 18.4853 8.50991 18.4895 8.50556 18.4938L7.83415 19.1616C7.43585 19.5579 7.16461 20.0628 7.05472 20.6124C6.94483 21.1621 7.00123 21.7318 7.21679 22.2496C7.43234 22.7673 7.79737 23.2099 8.26571 23.5212C8.73406 23.8326 9.28468 23.9988 9.84794 23.9988C10.2221 23.9998 10.5927 23.927 10.9384 23.7845C11.284 23.642 11.5979 23.4328 11.8617 23.1689L12.5197 22.514C12.5243 22.5098 12.5289 22.5054 12.5333 22.5009L24.2803 10.8133C24.3243 10.7695 24.3593 10.7174 24.3832 10.6601C24.4001 10.6196 24.4111 10.577 24.4162 10.5336L25.0836 6.54994C25.0961 6.47579 25.0905 6.39975 25.0675 6.32816C25.0444 6.25656 25.0045 6.19148 24.9511 6.13832C24.8977 6.08516 24.8323 6.04546 24.7603 6.02252C24.6883 5.99958 24.6119 5.99407 24.5374 6.00643L20.5098 6.67446L20.5047 6.67538C20.4796 6.67986 20.4549 6.68635 20.4308 6.69481ZM9.51277 18.8278L12.1977 21.4992L23.2735 10.4794L20.5885 7.80801L9.51277 18.8278ZM7.70177 6.54994C7.68935 6.47578 7.6949 6.39975 7.71796 6.32816C7.74101 6.25657 7.78092 6.19149 7.83434 6.13833C7.88777 6.08517 7.95318 6.04547 8.02514 6.02253C8.09709 5.99959 8.17351 5.99407 8.24804 6.00643L12.2756 6.67444C12.3376 6.68417 12.3969 6.706 12.4503 6.73867C12.4958 6.76652 12.5362 6.80178 12.5698 6.84292L15.7223 9.9797C15.8113 10.0682 15.8613 10.1881 15.8614 10.3133C15.8615 10.4384 15.8116 10.5584 15.7228 10.647L12.3662 13.9867C12.3222 14.0305 12.2699 14.0652 12.2124 14.0889C12.1549 14.1126 12.0933 14.1247 12.031 14.1246C11.9687 14.1247 11.9069 14.1125 11.8494 14.0888C11.7918 14.065 11.7395 14.0302 11.6954 13.9862L8.5187 10.8258C8.44181 10.7549 8.39052 10.6605 8.37319 10.5572L7.70177 6.54994ZM11.2093 7.4551L8.74751 7.04685L9.15784 9.49618L9.46405 9.19151L11 7.66332L11.2093 7.4551ZM12.0315 12.985L9.51245 10.479L12.1972 7.80777L14.716 10.3141L12.0315 12.985ZM21.2599 22.1672L21.5936 22.4993C21.7695 22.6757 21.9789 22.8157 22.2096 22.9111C22.4403 23.0065 22.6878 23.0554 22.9376 23.055H22.9401C23.1888 23.0553 23.4351 23.0064 23.6646 22.9111C23.8942 22.8159 24.1024 22.6762 24.2772 22.5002L24.279 22.4983C24.4559 22.3233 24.5962 22.1153 24.692 21.8861C24.7877 21.6569 24.837 21.4112 24.8369 21.163C24.8368 20.9148 24.7874 20.6691 24.6915 20.44C24.5956 20.2109 24.4551 20.003 24.2781 19.8281L23.9446 19.4963L21.9426 21.488L21.2599 22.1672ZM24.298 18.5121C24.2924 18.5059 24.2866 18.4998 24.2807 18.4939L21.0909 15.3205C21.0019 15.2319 20.8812 15.1822 20.7553 15.1821H20.7549C20.6925 15.1822 20.6308 15.1945 20.5732 15.2183C20.5156 15.2421 20.4633 15.277 20.4193 15.3209L17.0645 18.6588C17.0203 18.7026 16.9853 18.7546 16.9613 18.812C16.9374 18.8693 16.925 18.9307 16.925 18.9928C16.9249 19.0549 16.9372 19.1163 16.9611 19.1737C16.9849 19.231 17.0199 19.2831 17.064 19.327L20.2353 22.4825C20.2411 22.4888 20.247 22.4951 20.2531 22.5011L20.9224 23.1671C21.1862 23.4316 21.5002 23.6414 21.8461 23.7843C22.192 23.9272 22.563 24.0005 22.9376 23.9997L22.9413 23.9995C23.504 23.9977 24.0536 23.8302 24.5207 23.5181C24.9879 23.206 25.3518 22.7633 25.5665 22.2458C25.7813 21.7284 25.8372 21.1592 25.7274 20.6101C25.6176 20.061 25.3468 19.5565 24.9493 19.1603L24.298 18.5121ZM23.2739 18.8278L20.7558 16.3226L18.0713 18.9936L20.5891 21.4989L23.2739 18.8278ZM8.84117 19.4955L8.50534 19.8294C8.14926 20.1837 7.94922 20.6642 7.94922 21.1652C7.94922 21.6663 8.14926 22.1468 8.50534 22.5011C8.86142 22.8554 9.34437 23.0544 9.84794 23.0544C10.3515 23.0544 10.8345 22.8554 11.1905 22.5011L11.5261 22.1669L8.84117 19.4955Z"/>
  </symbol>
  <symbol id="icon-companion-challenges" viewBox="0 0 32 32" fill="currentColor" xmlns="http://www.w3.org/2000/svg">
    <path fill-rule="evenodd" clip-rule="evenodd" d="M16.271 4.57946C16.271 4.25943 16.0081 4 15.6839 4C15.3596 4 15.0968 4.25943 15.0968 4.57946V11.1216L10.7485 19.228L9.7554 17.8557C9.1236 16.9827 7.788 17.0494 7.24871 17.9809L2.69798 25.841H2.5871C2.26285 25.841 2 26.1004 2 26.4205C2 26.7405 2.26285 26.9999 2.5871 26.9999H3.02838C3.0349 27 3.04142 27 3.04793 26.9999H29.4129C29.7371 26.9999 30 26.7405 30 26.4205C30 26.1004 29.8726 25.841 29.5484 25.841H29.1078L24.1232 17.8938C23.5629 17.0005 22.2619 16.9582 21.6433 17.813L20.6192 19.228L16.271 11.1216V10.515C16.6728 10.662 17.1098 10.7306 17.5468 10.7306C18.3959 10.7306 19.2996 10.4742 20.0741 9.96467C20.8831 9.43231 21.7867 9.73718 22.1324 9.96467C22.3126 10.0832 22.5442 10.0943 22.7351 9.99342C22.926 9.89258 23.0452 9.69623 23.0452 9.48253V5.47088C23.0452 5.38093 23.0239 5.29221 22.9832 5.21174C22.6604 4.57455 21.9699 4.39354 21.4739 4.34791C20.9464 4.29937 20.4035 4.37765 20.0576 4.463C20.0161 4.47325 19.9758 4.48796 19.9374 4.50687C18.5445 5.19428 17.5857 5.37991 16.9801 5.37066C16.6787 5.36606 16.4729 5.31351 16.3435 5.25818C16.3153 5.2461 16.2913 5.23418 16.271 5.22291V4.57946ZM4.05036 25.841H7.20136L10.1343 20.3731L8.79992 18.5293C8.6659 18.3441 8.38259 18.3583 8.26819 18.5559L4.05036 25.841ZM23.1248 18.5038L27.7268 25.841H24.1664L21.2335 20.3732L22.5987 18.4866C22.73 18.3053 23.0059 18.3143 23.1248 18.5038ZM16.271 9.21654V6.44875C16.4807 6.49773 16.7122 6.52562 16.9619 6.52944C17.8048 6.5423 18.9338 6.28944 20.4012 5.57352C20.658 5.5164 21.0307 5.47107 21.3649 5.50181C21.6436 5.52746 21.7937 5.59356 21.871 5.65694V8.61281C21.1874 8.43809 20.2876 8.43132 19.4227 9.00039C18.8423 9.38231 18.1654 9.57168 17.5468 9.57168C17.0264 9.57168 16.5847 9.43947 16.271 9.21654ZM18.2965 17.3746L22.8378 25.841H8.52995L13.0713 17.3746L14.0034 17.9879C14.2362 18.1411 14.5463 18.1108 14.7442 17.9155L15.6839 16.988L16.6236 17.9155C16.8215 18.1108 17.1315 18.1411 17.3644 17.9879L18.2965 17.3746ZM17.7443 16.3451L15.6839 12.5039L13.6235 16.3451L14.2542 16.7601L15.2687 15.7588C15.498 15.5325 15.8697 15.5325 16.099 15.7588L17.1135 16.7601L17.7443 16.3451Z"/>
  </symbol>
  <symbol id="icon-companion-allItems" viewBox="0 0 32 32" fill="currentColor" xmlns="http://www.w3.org/2000/svg">
    <path d="M9 7C7.89543 7 7 7.89543 7 9V23C7 24.1046 7.89543 25 9 25H23C24.1046 25 25 24.1046 25 23V9C25 7.89543 24.1046 7 23 7H9ZM15 23H9V17H15V23ZM15 15H9V9H15V15ZM23 23H17V17H23V23ZM23 15H17V9H23V15Z"/>
  </symbol>
  <symbol id="icon-link" viewBox="0 0 22 22" xmlns="http://www.w3.org/2000/svg" fill="currentColor">
    <path d="M4.87904 16.3346C3.66988 15.1255 3.66988 13.1597 4.87904 11.9505L7.70746 9.12212L6.36396 7.77862L3.53553 10.607C1.58392 12.5587 1.58392 15.7265 3.53553 17.6781C5.48715 19.6297 8.65499 19.6297 10.6066 17.6781L13.435 14.8497L12.0915 13.5062L9.2631 16.3346C8.05395 17.5438 6.08819 17.5438 4.87904 16.3346ZM8.48528 14.1426L14.1421 8.48572L12.7279 7.07151L7.07107 12.7284L8.48528 14.1426ZM10.6066 3.53597L7.77818 6.3644L9.12168 7.7079L11.9501 4.87948C13.1593 3.67032 15.125 3.67032 16.3342 4.87948C17.5433 6.08863 17.5433 8.05439 16.3342 9.26354L13.5057 12.092L14.8492 13.4355L17.6777 10.607C19.6293 8.65543 19.6293 5.48759 17.6777 3.53597C15.7261 1.58436 12.5582 1.58436 10.6066 3.53597Z"/>
  </symbol>
</svg>
