<svg width="117" height="84" viewBox="0 0 117 84" fill="none" xmlns="http://www.w3.org/2000/svg">
<path d="M15.6692 14.584H12.3092V19H10.5812V14.584H1.10118V13.336L10.0052 2.2H11.9252L3.33318 13.048H10.6292V9.16H12.3092V13.048H15.6692V14.584ZM19.4854 19.12C19.1334 19.12 18.8294 18.992 18.5734 18.736C18.3334 18.48 18.2134 18.168 18.2134 17.8C18.2134 17.432 18.3334 17.128 18.5734 16.888C18.8294 16.632 19.1334 16.504 19.4854 16.504C19.8374 16.504 20.1414 16.632 20.3974 16.888C20.6534 17.128 20.7814 17.432 20.7814 17.8C20.7814 18.168 20.6534 18.48 20.3974 18.736C20.1414 18.992 19.8374 19.12 19.4854 19.12ZM30.4418 8.944C31.5458 8.944 32.5218 9.152 33.3698 9.568C34.2338 9.984 34.9058 10.576 35.3858 11.344C35.8658 12.096 36.1058 12.976 36.1058 13.984C36.1058 15.008 35.8578 15.912 35.3618 16.696C34.8658 17.48 34.1778 18.088 33.2978 18.52C32.4338 18.936 31.4578 19.144 30.3698 19.144C28.1458 19.144 26.4418 18.416 25.2578 16.96C24.0738 15.488 23.4818 13.416 23.4818 10.744C23.4818 8.872 23.8018 7.288 24.4418 5.992C25.0818 4.696 25.9778 3.72 27.1298 3.064C28.2818 2.392 29.6258 2.056 31.1618 2.056C32.8258 2.056 34.1538 2.36 35.1458 2.968L34.4498 4.36C33.6498 3.832 32.5618 3.568 31.1858 3.568C29.3298 3.568 27.8738 4.16 26.8178 5.344C25.7618 6.512 25.2338 8.216 25.2338 10.456C25.2338 10.856 25.2578 11.312 25.3058 11.824C25.7218 10.912 26.3858 10.208 27.2978 9.712C28.2098 9.2 29.2578 8.944 30.4418 8.944ZM30.2978 17.68C31.5138 17.68 32.4978 17.352 33.2498 16.696C34.0178 16.024 34.4018 15.136 34.4018 14.032C34.4018 12.928 34.0178 12.048 33.2498 11.392C32.4978 10.736 31.4738 10.408 30.1778 10.408C29.3298 10.408 28.5778 10.568 27.9218 10.888C27.2818 11.208 26.7778 11.648 26.4098 12.208C26.0418 12.768 25.8578 13.392 25.8578 14.08C25.8578 14.72 26.0258 15.312 26.3618 15.856C26.7138 16.4 27.2258 16.84 27.8978 17.176C28.5698 17.512 29.3698 17.68 30.2978 17.68Z" fill="#107E4F"/>
<path d="M49.9728 17.976V19H42.0528V7.8H49.7328V8.824H43.2368V12.808H49.0288V13.816H43.2368V17.976H49.9728ZM58.1058 19L55.4338 15.48L52.7458 19H51.4658L54.7938 14.68L51.6258 10.584H52.9058L55.4338 13.88L57.9618 10.584H59.2098L56.0418 14.68L59.4018 19H58.1058ZM64.9481 19.08C64.1161 19.08 63.3694 18.8987 62.7081 18.536C62.0574 18.1733 61.5454 17.6667 61.1721 17.016C60.7988 16.3547 60.6121 15.6133 60.6121 14.792C60.6121 13.9707 60.7988 13.2347 61.1721 12.584C61.5454 11.9333 62.0574 11.4267 62.7081 11.064C63.3694 10.7013 64.1161 10.52 64.9481 10.52C65.6734 10.52 66.3188 10.664 66.8841 10.952C67.4601 11.2293 67.9134 11.64 68.2441 12.184L67.3961 12.76C67.1188 12.344 66.7668 12.0347 66.3401 11.832C65.9134 11.6187 65.4494 11.512 64.9481 11.512C64.3401 11.512 63.7908 11.6507 63.3001 11.928C62.8201 12.1947 62.4414 12.5787 62.1641 13.08C61.8974 13.5813 61.7641 14.152 61.7641 14.792C61.7641 15.4427 61.8974 16.0187 62.1641 16.52C62.4414 17.0107 62.8201 17.3947 63.3001 17.672C63.7908 17.9387 64.3401 18.072 64.9481 18.072C65.4494 18.072 65.9134 17.9707 66.3401 17.768C66.7668 17.5653 67.1188 17.256 67.3961 16.84L68.2441 17.416C67.9134 17.96 67.4601 18.376 66.8841 18.664C66.3081 18.9413 65.6628 19.08 64.9481 19.08ZM78.1274 15.144H71.0874C71.1514 16.0187 71.4874 16.728 72.0954 17.272C72.7034 17.8053 73.4714 18.072 74.3994 18.072C74.9221 18.072 75.4021 17.9813 75.8394 17.8C76.2767 17.608 76.6554 17.3307 76.9754 16.968L77.6154 17.704C77.2421 18.152 76.7727 18.4933 76.2074 18.728C75.6527 18.9627 75.0394 19.08 74.3674 19.08C73.5034 19.08 72.7354 18.8987 72.0634 18.536C71.4021 18.1627 70.8847 17.6507 70.5114 17C70.1381 16.3493 69.9514 15.6133 69.9514 14.792C69.9514 13.9707 70.1274 13.2347 70.4794 12.584C70.8421 11.9333 71.3327 11.4267 71.9514 11.064C72.5807 10.7013 73.2847 10.52 74.0634 10.52C74.8421 10.52 75.5407 10.7013 76.1594 11.064C76.7781 11.4267 77.2634 11.9333 77.6154 12.584C77.9674 13.224 78.1434 13.96 78.1434 14.792L78.1274 15.144ZM74.0634 11.496C73.2527 11.496 72.5701 11.7573 72.0154 12.28C71.4714 12.792 71.1621 13.464 71.0874 14.296H77.0554C76.9807 13.464 76.6661 12.792 76.1114 12.28C75.5674 11.7573 74.8847 11.496 74.0634 11.496ZM80.9199 7.128H82.0559V19H80.9199V7.128ZM85.6811 7.128H86.8171V19H85.6811V7.128ZM97.7703 15.144H90.7303C90.7943 16.0187 91.1303 16.728 91.7383 17.272C92.3463 17.8053 93.1143 18.072 94.0423 18.072C94.5649 18.072 95.0449 17.9813 95.4823 17.8C95.9196 17.608 96.2983 17.3307 96.6183 16.968L97.2583 17.704C96.8849 18.152 96.4156 18.4933 95.8503 18.728C95.2956 18.9627 94.6823 19.08 94.0103 19.08C93.1463 19.08 92.3783 18.8987 91.7063 18.536C91.0449 18.1627 90.5276 17.6507 90.1543 17C89.7809 16.3493 89.5943 15.6133 89.5943 14.792C89.5943 13.9707 89.7703 13.2347 90.1223 12.584C90.4849 11.9333 90.9756 11.4267 91.5943 11.064C92.2236 10.7013 92.9276 10.52 93.7063 10.52C94.4849 10.52 95.1836 10.7013 95.8023 11.064C96.4209 11.4267 96.9063 11.9333 97.2583 12.584C97.6103 13.224 97.7863 13.96 97.7863 14.792L97.7703 15.144ZM93.7063 11.496C92.8956 11.496 92.2129 11.7573 91.6583 12.28C91.1143 12.792 90.8049 13.464 90.7303 14.296H96.6983C96.6236 13.464 96.3089 12.792 95.7543 12.28C95.2103 11.7573 94.5276 11.496 93.7063 11.496ZM104.851 10.52C105.907 10.52 106.744 10.8293 107.363 11.448C107.992 12.056 108.307 12.9467 108.307 14.12V19H107.171V14.232C107.171 13.3573 106.952 12.6907 106.515 12.232C106.077 11.7733 105.453 11.544 104.643 11.544C103.736 11.544 103.016 11.816 102.483 12.36C101.96 12.8933 101.699 13.6347 101.699 14.584V19H100.563V10.584H101.651V12.136C101.96 11.624 102.387 11.2293 102.931 10.952C103.485 10.664 104.125 10.52 104.851 10.52ZM116.287 18.488C116.074 18.68 115.807 18.8293 115.487 18.936C115.178 19.032 114.853 19.08 114.511 19.08C113.722 19.08 113.114 18.8667 112.687 18.44C112.261 18.0133 112.047 17.4107 112.047 16.632V11.544H110.543V10.584H112.047V8.744H113.183V10.584H115.743V11.544H113.183V16.568C113.183 17.0693 113.306 17.4533 113.551 17.72C113.807 17.976 114.17 18.104 114.639 18.104C114.874 18.104 115.098 18.0667 115.311 17.992C115.535 17.9173 115.727 17.8107 115.887 17.672L116.287 18.488Z" fill="#107E4F"/>
<rect x="1" y="27" width="20.8205" height="20.8205" rx="2" fill="#107E4F"/>
<path d="M11.7821 30.7179L13.368 35.5991H18.5004L14.3482 38.6158L15.9342 43.497L11.7821 40.4803L7.62988 43.497L9.21587 38.6158L5.0637 35.5991H10.1961L11.7821 30.7179Z" fill="white"/>
<rect x="24.7949" y="27" width="20.8205" height="20.8205" rx="2" fill="#107E4F"/>
<path d="M35.5769 30.7179L37.1628 35.5991H42.2952L38.143 38.6158L39.729 43.497L35.5769 40.4803L31.4247 43.497L33.0107 38.6158L28.8585 35.5991H33.9909L35.5769 30.7179Z" fill="white"/>
<rect x="48.5897" y="27" width="20.8205" height="20.8205" rx="2" fill="#107E4F"/>
<path d="M59.3717 30.7179L60.9576 35.5991H66.09L61.9378 38.6158L63.5238 43.497L59.3717 40.4803L55.2195 43.497L56.8055 38.6158L52.6533 35.5991H57.7857L59.3717 30.7179Z" fill="white"/>
<rect x="72.3846" y="27" width="20.8205" height="20.8205" rx="2" fill="#107E4F"/>
<path d="M83.1665 30.7179L84.7525 35.5991H89.8849L85.7327 38.6158L87.3187 43.497L83.1665 40.4803L79.0143 43.497L80.6003 38.6158L76.4482 35.5991H81.5805L83.1665 30.7179Z" fill="white"/>
<rect x="95.9998" y="27" width="20.8205" height="20.8205" rx="2" fill="#107E4F"/>
<path d="M107 27H115C116.104 27 117 27.8954 117 29V46C117 47.1046 116.104 48 115 48H107V27Z" fill="#848484"/>
<path d="M106.961 30.7179L108.547 35.5991H113.68L109.528 38.6158L111.114 43.497L106.961 40.4803L102.809 43.497L104.395 38.6158L100.243 35.5991H105.375L106.961 30.7179Z" fill="white"/>
<path opacity="0.8" d="M31.0103 66H42.818V68.1448H38.1752V80.2016H35.6222V68.1448H31V66H31.0103ZM42.3136 69.9187H44.496V71.9031H44.5372C44.6093 71.6225 44.7431 71.3519 44.9387 71.0913C45.1343 70.8307 45.3711 70.5802 45.649 70.3697C45.927 70.1492 46.2358 69.9788 46.5755 69.8385C46.9152 69.7082 47.2653 69.6381 47.6153 69.6381C47.8829 69.6381 48.0785 69.6481 48.1815 69.6581C48.2844 69.6682 48.3874 69.6882 48.5006 69.6982V71.8831C48.3359 71.853 48.1712 71.833 47.9962 71.8129C47.8212 71.7929 47.6565 71.7829 47.4917 71.7829C47.1005 71.7829 46.7299 71.863 46.3799 72.0134C46.0299 72.1637 45.7314 72.3942 45.474 72.6849C45.2167 72.9855 45.0108 73.3463 44.8564 73.7873C44.7019 74.2283 44.6299 74.7294 44.6299 75.3007V80.1915H42.3033V69.9187H42.3136ZM59.1966 80.2016H56.9112V78.7684H56.87C56.5818 79.2895 56.1597 79.7004 55.5935 80.0111C55.0273 80.3218 54.4508 80.4822 53.864 80.4822C52.4743 80.4822 51.4654 80.1514 50.8477 79.48C50.2301 78.8085 49.9212 77.7962 49.9212 76.4432V69.9187H52.2478V76.2227C52.2478 77.1247 52.4228 77.7661 52.7831 78.137C53.1331 78.5078 53.6375 78.6982 54.2758 78.6982C54.7699 78.6982 55.1714 78.6281 55.5008 78.4777C55.8303 78.3274 56.0979 78.137 56.2935 77.8864C56.4994 77.6459 56.6435 77.3452 56.7362 77.0045C56.8288 76.6637 56.87 76.2929 56.87 75.892V69.9287H59.1966V80.2016ZM63.1599 76.9042C63.232 77.5657 63.4893 78.0267 63.932 78.2973C64.385 78.5579 64.9203 78.6982 65.5482 78.6982C65.7644 78.6982 66.0115 78.6782 66.2894 78.6481C66.5674 78.618 66.835 78.5479 67.0718 78.4577C67.3189 78.3675 67.5145 78.2272 67.6792 78.0468C67.8336 77.8664 67.9057 77.6359 67.8954 77.3452C67.8851 77.0546 67.7718 76.814 67.566 76.6336C67.3601 76.4432 67.1027 76.3029 66.7836 76.1826C66.4644 76.0724 66.1041 75.9722 65.6924 75.892C65.2806 75.8118 64.8688 75.7216 64.4467 75.6314C64.0144 75.5412 63.5923 75.4209 63.1908 75.2906C62.7893 75.1604 62.429 74.98 62.1099 74.7494C61.7908 74.529 61.5334 74.2383 61.3481 73.8875C61.1525 73.5367 61.0598 73.1058 61.0598 72.5846C61.0598 72.0234 61.204 71.5624 61.4819 71.1815C61.7599 70.8007 62.1202 70.5 62.5423 70.2695C62.9746 70.039 63.4482 69.8786 63.9732 69.7784C64.4982 69.6882 65.0026 69.6381 65.4762 69.6381C66.0218 69.6381 66.5468 69.6982 67.0409 69.8085C67.5351 69.9187 67.988 70.0991 68.3895 70.3597C68.791 70.6102 69.1204 70.941 69.3881 71.3419C69.6557 71.7428 69.8204 72.2339 69.8925 72.8051H67.463C67.3498 72.2639 67.1027 71.8931 66.7012 71.7127C66.2997 71.5223 65.8365 71.4321 65.3218 71.4321C65.157 71.4321 64.9615 71.4421 64.735 71.4722C64.5085 71.5022 64.3026 71.5523 64.0967 71.6225C63.9011 71.6926 63.7364 71.8029 63.5923 71.9432C63.4585 72.0835 63.3864 72.2639 63.3864 72.4944C63.3864 72.7751 63.4893 72.9955 63.6849 73.1659C63.8805 73.3363 64.1379 73.4766 64.457 73.5969C64.7761 73.7071 65.1365 73.8073 65.5482 73.8875C65.96 73.9677 66.3821 74.0579 66.8145 74.1481C67.2365 74.2383 67.6483 74.3586 68.0601 74.4889C68.4719 74.6192 68.8322 74.7996 69.1513 75.0301C69.4704 75.2606 69.7278 75.5412 69.9234 75.882C70.119 76.2227 70.2219 76.6537 70.2219 77.1548C70.2219 77.7661 70.0778 78.2773 69.7896 78.7082C69.5013 79.1292 69.1307 79.48 68.6778 79.7405C68.2248 80.0011 67.7101 80.2016 67.1542 80.3218C66.5983 80.4421 66.0424 80.5022 65.4968 80.5022C64.8276 80.5022 64.21 80.4321 63.6438 80.2817C63.0776 80.1314 62.5834 79.9109 62.1717 79.6203C61.7599 79.3196 61.4305 78.9488 61.1937 78.5078C60.9569 78.0668 60.8334 77.5356 60.8128 76.9243H63.1599V76.9042ZM70.8396 69.9187H72.6V66.8318H74.9265V69.9187H77.0266V71.6125H74.9265V77.1047C74.9265 77.3452 74.9368 77.5457 74.9574 77.7261C74.978 77.8964 75.0294 78.0468 75.1015 78.167C75.1736 78.2873 75.2868 78.3775 75.4412 78.4376C75.5956 78.4978 75.7912 78.5278 76.0589 78.5278C76.2236 78.5278 76.3883 78.5278 76.553 78.5178C76.7177 78.5078 76.8825 78.4878 77.0472 78.4477V80.2016C76.7898 80.2316 76.5324 80.2517 76.2957 80.2817C76.0486 80.3118 75.8015 80.3218 75.5442 80.3218C74.9265 80.3218 74.4324 80.2617 74.0618 80.1514C73.6912 80.0412 73.3926 79.8708 73.1867 79.6503C72.9706 79.4298 72.8367 79.1592 72.7544 78.8285C72.6823 78.4978 72.6308 78.1169 72.6205 77.696V71.6325H70.8602V69.9187H70.8396ZM78.6737 69.9187H80.8767V71.3118H80.9179C81.2473 70.7105 81.7003 70.2895 82.287 70.029C82.8738 69.7684 83.5018 69.6381 84.1915 69.6381C85.0254 69.6381 85.746 69.7784 86.3637 70.069C86.9813 70.3497 87.4961 70.7405 87.9078 71.2416C88.3196 71.7428 88.6181 72.3241 88.824 72.9855C89.0299 73.647 89.1329 74.3586 89.1329 75.1102C89.1329 75.8018 89.0402 76.4733 88.8549 77.1147C88.6696 77.7661 88.3917 78.3374 88.0211 78.8385C87.6505 79.3396 87.1769 79.7305 86.6004 80.0312C86.0239 80.3318 85.3548 80.4822 84.5724 80.4822C84.2327 80.4822 83.893 80.4521 83.5533 80.392C83.2135 80.3318 82.8841 80.2316 82.5753 80.1013C82.2665 79.971 81.9679 79.8007 81.7106 79.5902C81.4429 79.3797 81.2267 79.1392 81.0414 78.8686H81.0002V84H78.6737V69.9187ZM86.8063 75.0702C86.8063 74.6091 86.7446 74.1581 86.621 73.7171C86.4975 73.2762 86.3122 72.8953 86.0651 72.5546C85.8181 72.2138 85.5092 71.9432 85.1489 71.7428C84.7783 71.5423 84.3562 71.4321 83.8827 71.4321C82.9047 71.4321 82.1635 71.7628 81.6694 72.4243C81.1752 73.0857 80.9282 73.9677 80.9282 75.0702C80.9282 75.5913 80.9899 76.0724 81.1238 76.5134C81.2576 76.9543 81.4429 77.3352 81.7106 77.6559C81.9679 77.9766 82.2768 78.2272 82.6371 78.4076C82.9974 78.598 83.4194 78.6882 83.893 78.6882C84.4283 78.6882 84.871 78.578 85.2416 78.3675C85.6122 78.157 85.9107 77.8764 86.1475 77.5457C86.3842 77.2049 86.5592 76.8241 86.6622 76.3931C86.7548 75.9621 86.8063 75.5212 86.8063 75.0702ZM90.9138 66H93.2404V68.1448H90.9138V66ZM90.9138 69.9187H93.2404V80.2016H90.9138V69.9187ZM95.3198 66H97.6464V80.2016H95.3198V66ZM104.78 80.4822C103.936 80.4822 103.185 80.3419 102.526 80.0713C101.867 79.8007 101.311 79.4198 100.848 78.9488C100.395 78.4677 100.045 77.8964 99.8082 77.235C99.5715 76.5735 99.4479 75.8419 99.4479 75.0501C99.4479 74.2684 99.5715 73.5468 99.8082 72.8853C100.045 72.2238 100.395 71.6526 100.848 71.1715C101.301 70.6904 101.867 70.3196 102.526 70.049C103.185 69.7784 103.936 69.6381 104.78 69.6381C105.625 69.6381 106.376 69.7784 107.035 70.049C107.694 70.3196 108.25 70.7004 108.713 71.1715C109.166 71.6526 109.516 72.2238 109.753 72.8853C109.989 73.5468 110.113 74.2684 110.113 75.0501C110.113 75.8419 109.989 76.5735 109.753 77.235C109.516 77.8964 109.166 78.4677 108.713 78.9488C108.26 79.4298 107.694 79.8007 107.035 80.0713C106.376 80.3419 105.625 80.4822 104.78 80.4822ZM104.78 78.6882C105.295 78.6882 105.748 78.578 106.129 78.3675C106.51 78.157 106.819 77.8764 107.066 77.5356C107.313 77.1949 107.488 76.804 107.611 76.3731C107.725 75.9421 107.786 75.5011 107.786 75.0501C107.786 74.6091 107.725 74.1782 107.611 73.7372C107.498 73.2962 107.313 72.9154 107.066 72.5746C106.819 72.2339 106.51 71.9633 106.129 71.7528C105.748 71.5423 105.295 71.4321 104.78 71.4321C104.266 71.4321 103.813 71.5423 103.432 71.7528C103.051 71.9633 102.742 72.2439 102.495 72.5746C102.248 72.9154 102.073 73.2962 101.949 73.7372C101.836 74.1782 101.774 74.6091 101.774 75.0501C101.774 75.5011 101.836 75.9421 101.949 76.3731C102.063 76.804 102.248 77.1949 102.495 77.5356C102.742 77.8764 103.051 78.157 103.432 78.3675C103.813 78.588 104.266 78.6882 104.78 78.6882ZM110.792 69.9187H112.553V66.8318H114.879V69.9187H116.979V71.6125H114.879V77.1047C114.879 77.3452 114.89 77.5457 114.91 77.7261C114.931 77.8964 114.982 78.0468 115.054 78.167C115.126 78.2873 115.24 78.3775 115.394 78.4376C115.548 78.4978 115.744 78.5278 116.012 78.5278C116.176 78.5278 116.341 78.5278 116.506 78.5178C116.671 78.5078 116.835 78.4878 117 78.4477V80.2016C116.743 80.2316 116.485 80.2517 116.248 80.2817C116.001 80.3118 115.754 80.3218 115.497 80.3218C114.879 80.3218 114.385 80.2617 114.015 80.1514C113.644 80.0412 113.345 79.8708 113.14 79.6503C112.923 79.4298 112.79 79.1592 112.707 78.8285C112.635 78.4978 112.584 78.1169 112.573 77.696V71.6325H110.813V69.9187H110.792Z" fill="white"/>
<path d="M29 65.9364H18.3078L15.0052 56L11.6922 65.9364L1 65.9264L9.65905 72.0736L6.34611 82L15.0052 75.8628L23.6539 82L20.3513 72.0736L29 65.9364Z" fill="#00B67A"/>
<path d="M21 74.3723L20.2678 72L15 76L21 74.3723Z" fill="#005128"/>
</svg>
